<?xml version="1.0" standalone="no"?>
<!DOCTYPE svg PUBLIC "-//W3C//DTD SVG 20010904//EN"
 "http://www.w3.org/TR/2001/REC-SVG-20010904/DTD/svg10.dtd">
<svg version="1.0" xmlns="http://www.w3.org/2000/svg"
 width="700.000000pt" height="700.000000pt" viewBox="0 0 700.000000 700.000000"
 preserveAspectRatio="xMidYMid meet">
<metadata>
Created by potrace 1.11, written by Peter Selinger 2001-2013
</metadata>
<g transform="translate(0.000000,700.000000) scale(0.100000,-0.100000)"
fill="#000000" stroke="none">
<path d="M0 5280 l0 -1720 28 -1 c223 -4 606 1 611 9 3 6 6 634 5 1396 0 976
3 1386 10 1387 6 1 1290 2 2854 2 2836 2 2843 2 2847 -18 7 -38 2 -5680 -6
-5685 -4 -3 -651 -5 -1438 -4 l-1431 0 0 -323 0 -323 1760 0 1760 0 0 3500 0
3500 -3500 0 -3500 0 0 -1720z"/>
<path d="M2434 5120 c0 -216 3 -320 10 -321 6 -1 43 -3 81 -4 39 -2 75 -3 80
-4 8 -1 11 -478 10 -1532 0 -1010 3 -1533 10 -1537 6 -4 513 -7 1127 -7 l1117
0 0 591 0 590 -322 0 -322 -1 -1 -255 c-1 -140 -2 -260 -3 -266 -1 -8 -133
-11 -481 -11 l-480 0 0 1539 0 1538 -413 0 -413 0 0 -320z"/>
</g>
</svg>
