<svg xmlns="http://www.w3.org/2000/svg" width="142.453" height="108.149" viewBox="0 0 142.453 108.149"><g transform="translate(0 0)"><path fill="#f9f9eb" d="M129.907,118.119c-30.661-2.333-67.226-26.091-65.364-50.553s37.275-47.234,67.936-44.9,48.311,48.049,46.449,72.511S160.568,120.452,129.907,118.119Z" transform="translate(-60.987 -22.5)"/><ellipse cx="64.004" cy="3.921" fill="#3f3d56" rx="64.004" ry="3.921" transform="translate(7.487 91.705)"/><ellipse cx="54.517" cy="2.593" opacity=".1" rx="54.517" ry="2.593" transform="translate(16.974 92.97)"/><ellipse cx="26.84" cy="2.34" fill="#3f3d56" rx="26.84" ry="2.34" transform="translate(0 103.469)"/><ellipse cx="22.862" cy="1.547" opacity=".1" rx="22.862" ry="1.547" transform="translate(3.978 104.224)"/><rect width="95.121" height="74.629" fill="#3f3d56" transform="translate(24.817 20.491)"/><path fill="#f2f2f2" d="M436.523,261.2H413.057a.285.285,0,0,1,0-.57h23.466a.285.285,0,1,1,0,.57Z" transform="translate(-365.229 -230.506)"/><path fill="#f2f2f2" d="M546.776,285.962H509.868a.285.285,0,0,1,0-.57h36.908a.285.285,0,0,1,0,.57Z" transform="translate(-449.794 -252.139)"/><path fill="#f2f2f2" d="M437.424,310.728H413.957a.285.285,0,0,1,0-.57h23.466a.285.285,0,1,1,0,.57Z" transform="translate(-366.015 -273.772)"/><path fill="#f2f2f2" d="M639.6,311.178H616.135a.285.285,0,0,1,0-.57H639.6a.285.285,0,1,1,0,.57Z" transform="translate(-542.619 -274.165)"/><path fill="#f2f2f2" d="M437.874,335.493H414.407a.285.285,0,0,1,0-.57h23.466a.285.285,0,0,1,0,.57Z" transform="translate(-366.408 -295.405)"/><path fill="#f2f2f2" d="M438.324,360.259H414.858a.285.285,0,0,1,0-.57h23.466a.285.285,0,0,1,0,.57Z" transform="translate(-366.802 -317.038)"/><path fill="#f2f2f2" d="M638.166,261.646h-6.721a.285.285,0,1,1,0-.57h6.721a.285.285,0,1,1,0,.57Z" transform="translate(-555.993 -230.899)"/><path fill="#f2f2f2" d="M638.166,335.493h-6.721a.285.285,0,0,1,0-.57h6.721a.285.285,0,0,1,0,.57Z" transform="translate(-555.993 -295.405)"/><path fill="#f2f2f2" d="M638.166,359.809h-6.721a.285.285,0,0,1,0-.57h6.721a.285.285,0,0,1,0,.57Z" transform="translate(-555.993 -316.645)"/><path fill="#f2f2f2" d="M727.323,359.809H720.6a.285.285,0,0,1,0-.57h6.721a.285.285,0,0,1,0,.57Z" transform="translate(-633.872 -316.645)"/><path fill="#f2f2f2" d="M419.327,285.962h-6.721a.285.285,0,0,1,0-.57h6.721a.285.285,0,0,1,0,.57Z" transform="translate(-364.835 -252.139)"/><path fill="#f2f2f2" d="M436.748,625.928H413.282a.285.285,0,0,1,0-.57h23.466a.285.285,0,0,1,0,.57Z" transform="translate(-365.425 -549.102)"/><path fill="#f2f2f2" d="M435.848,675.459H412.381a.285.285,0,1,1,0-.57h23.466a.285.285,0,1,1,0,.569Z" transform="translate(-364.638 -592.368)"/><path fill="#f2f2f2" d="M436.3,700.225H412.831a.285.285,0,0,1,0-.57H436.3a.285.285,0,0,1,0,.57Z" transform="translate(-365.031 -614.002)"/><path fill="#f2f2f2" d="M631.187,675.909h-6.721a.285.285,0,1,1,0-.57h6.721a.285.285,0,0,1,0,.57Z" transform="translate(-549.897 -592.761)"/><path fill="#f2f2f2" d="M631.187,700.225h-6.721a.285.285,0,0,1,0-.57h6.721a.285.285,0,0,1,0,.57Z" transform="translate(-549.897 -614.002)"/><path fill="#f2f2f2" d="M720.343,675.909h-6.721a.285.285,0,0,1,0-.57h6.721a.285.285,0,0,1,0,.57Z" transform="translate(-627.775 -592.761)"/><path fill="#f2f2f2" d="M547,650.693H510.093a.285.285,0,0,1,0-.57H547a.285.285,0,1,1,0,.57Z" transform="translate(-449.991 -570.735)"/><path fill="#f2f2f2" d="M419.552,650.693h-6.721a.285.285,0,1,1,0-.57h6.721a.285.285,0,1,1,0,.57Z" transform="translate(-365.031 -570.735)"/><path fill="#f2f2f2" d="M547,725.441H510.093a.285.285,0,0,1,0-.57H547a.285.285,0,1,1,0,.57Z" transform="translate(-449.991 -636.028)"/><path fill="#f2f2f2" d="M419.552,725.441h-6.721a.285.285,0,1,1,0-.57h6.721a.285.285,0,1,1,0,.57Z" transform="translate(-365.031 -636.028)"/><path fill="#aff68c" d="M456.127,401.13l-9.113,9,9.113,9,2.05-2.05-6.892-6.892,6.949-6.949Z" transform="translate(-390.471 -350.391)"/><path fill="#aff68c" d="M610.774,401.13l9.113,9-9.113,9-2.05-2.05,6.892-6.892-6.949-6.949Z" transform="translate(-531.677 -350.391)"/><circle cx="1.138" cy="1.138" r="1.138" fill="#aff68c" transform="translate(26.208 21.25)"/><circle cx="1.138" cy="1.138" r="1.138" fill="#aff68c" transform="translate(29.244 21.25)"/><circle cx="1.138" cy="1.138" r="1.138" fill="#aff68c" transform="translate(32.28 21.25)"/><rect width="95.121" height=".379" opacity=".1" transform="translate(24.817 24.286)"/><path fill="#f9f9eb" d="M1015.169,503.384c0,8.066-4.8,10.883-10.711,10.883s-10.711-2.817-10.711-10.883,10.711-18.328,10.711-18.328S1015.169,495.318,1015.169,503.384Z" transform="translate(-872.716 -426.547)"/><path fill="#3f3d56" d="M1008.7,490.533l.11-6.751,4.565-8.352-4.547,7.293.049-3.036,3.146-6.042-3.133,5.239h0l.089-5.459,3.37-4.811L1009,472.567l.056-10.011-.348,13.252.028-.547-3.425-5.243,3.371,6.293-.32,6.1-.009-.162-3.949-5.518,3.936,6.089-.039.762-.008.012,0,.063-.81,15.469h1.082l.129-7.99,3.927-6.074Z" transform="translate(-877.353 -404.047)"/><path fill="#2f2e41" d="M134.138,768.462a5.46,5.46,0,0,1-1.034.443c-.642.175-1.329.111-1.978.261a.813.813,0,0,0-.639.449.943.943,0,0,0,.07.585c.717,2.1,1.149,4.334,2.293,6.239a9.442,9.442,0,0,0,1.77,2.149,1.687,1.687,0,0,0,.9.5.917.917,0,0,0,.932-1.288c-.1-.228-.293-.4-.416-.622a2.374,2.374,0,0,1-.23-.884,5.749,5.749,0,0,1,.09-2.69,9.038,9.038,0,0,1,.912-1.574,2.749,2.749,0,0,0,.514-1.713,2.975,2.975,0,0,0-.462-1.145c-.213-.357-.633-1.317-1.06-1.436C135.357,767.611,134.525,768.264,134.138,768.462Z" transform="translate(-118.627 -673.456)"/><path fill="#2f2e41" d="M246.021,813.731a1.773,1.773,0,0,1-.084.6c-.134.353-.466.6-.637.932a2.059,2.059,0,0,0,.028,1.535,1.573,1.573,0,0,0,.495.835,1.631,1.631,0,0,0,.753.241,63.6,63.6,0,0,0,6.9.2,2.355,2.355,0,0,0,1.23-.178.776.776,0,0,0,.344-1.058c-.224-.3-.666-.3-1.043-.318a4.29,4.29,0,0,1-2.645-1.09,1.91,1.91,0,0,1-.371-.427,2.624,2.624,0,0,1-.194-.445,19.835,19.835,0,0,0-1.149-2.545,1.348,1.348,0,0,0-.494-.591,1.3,1.3,0,0,0-.536-.117c-.574-.037-2.06-.232-2.5.214C245.705,811.931,246.03,813.207,246.021,813.731Z" transform="translate(-218.819 -711.464)"/><circle cx="3.665" cy="3.665" r="3.665" fill="#fbbebe" transform="translate(27.068 43.986)"/><path fill="#fbbebe" d="M245.934,411.406a2.755,2.755,0,0,1-1.126,1.446l5.069,1.034a5.37,5.37,0,0,1-.071-2.26,1.3,1.3,0,0,0,.03-.558c-.1-.368-.509-.545-.88-.629a11.758,11.758,0,0,1-2.6-.733A12.254,12.254,0,0,0,245.934,411.406Z" transform="translate(-218.511 -360.729)"/><path fill="#2f2e41" d="M212.766,421.292a3.964,3.964,0,0,1,3.455.09,7.82,7.82,0,0,1,1.717,1.369,2.741,2.741,0,0,1,1.042,1.685,4.719,4.719,0,0,1-.137.972,3.259,3.259,0,0,0,1.743,3.348,4.436,4.436,0,0,1,.492,2.266c.023,2.964-.912,5.965-.244,8.854.157.678.4,1.335.535,2.018.175.884.167,1.794.259,2.69a12.051,12.051,0,0,0,.647,2.845,1.182,1.182,0,0,1-1.093.457,3.087,3.087,0,0,1-1.169-.4c-1.786-.914-3.423-2.12-5.273-2.9-1.224-.514-2.528-.834-3.716-1.428a4.866,4.866,0,0,1-2.655-2.813,6.583,6.583,0,0,1-.175-1.708,31,31,0,0,1,.457-7.222c.464-2.081,1.359-4.072,1.554-6.2a4.216,4.216,0,0,1,.451-2.008C211.2,422.4,212.378,422.193,212.766,421.292Z" transform="translate(-186.51 -370.541)"/><path fill="#2f2e41" d="M235.918,361.023a.947.947,0,0,1,.978-.237c.345.083.663.261,1.012.329a.591.591,0,0,0,.473-.067.689.689,0,0,0,.2-.452,8.623,8.623,0,0,0,.085-2.2.651.651,0,0,1,.02-.308c.086-.208.349-.257.564-.324a1.684,1.684,0,0,0,1.14-1.724.686.686,0,0,0-.21-.473.862.862,0,0,0-.548-.13q-1.478-.012-2.956,0a2.146,2.146,0,0,0-1.064.194,5.163,5.163,0,0,0-.617.52,6.051,6.051,0,0,1-1.953.758,1.937,1.937,0,0,0-.856.51.9.9,0,0,0-.189.935,3.324,3.324,0,0,0,.239.367c.393.628.131,1.442.19,2.181a3.989,3.989,0,0,0,2.363,2.636C236.287,363.892,235.424,361.628,235.918,361.023Z" transform="translate(-207.269 -313.32)"/><path fill="#2f2e41" d="M242.144,674.8a10.935,10.935,0,0,1,.183,2.028c-.045.948-.387,1.861-.45,2.808-.047.707.062,1.422-.036,2.124-.063.45-.209.883-.3,1.327a5.489,5.489,0,0,0,.882,4.208.69.69,0,0,0,.256.248.724.724,0,0,0,.317.042,22.781,22.781,0,0,0,3.184-.289.306.306,0,0,0,.2-.09.286.286,0,0,0,.044-.121,10.218,10.218,0,0,0-.363-3.027,9.4,9.4,0,0,1,.4-3.234,14.351,14.351,0,0,1,.439-1.547c.125-.341.276-.673.384-1.02a7.772,7.772,0,0,0,.279-1.67q.113-1.337.12-2.681a11.254,11.254,0,0,0-.211-2.531,13.49,13.49,0,0,0-1.206-3,1.9,1.9,0,0,0-.711.338,15.87,15.87,0,0,1-1.942,1.073c-.451.209-1.331.358-1.617.795s-.1,1.309-.079,1.784Q241.974,673.587,242.144,674.8Z" transform="translate(-215.564 -586.678)"/><path d="M242.144,674.8a10.935,10.935,0,0,1,.183,2.028c-.045.948-.387,1.861-.45,2.808-.047.707.062,1.422-.036,2.124-.063.45-.209.883-.3,1.327a5.489,5.489,0,0,0,.882,4.208.69.69,0,0,0,.256.248.724.724,0,0,0,.317.042,22.781,22.781,0,0,0,3.184-.289.306.306,0,0,0,.2-.09.286.286,0,0,0,.044-.121,10.218,10.218,0,0,0-.363-3.027,9.4,9.4,0,0,1,.4-3.234,14.351,14.351,0,0,1,.439-1.547c.125-.341.276-.673.384-1.02a7.772,7.772,0,0,0,.279-1.67q.113-1.337.12-2.681a11.254,11.254,0,0,0-.211-2.531,13.49,13.49,0,0,0-1.206-3,1.9,1.9,0,0,0-.711.338,15.87,15.87,0,0,1-1.942,1.073c-.451.209-1.331.358-1.617.795s-.1,1.309-.079,1.784Q241.974,673.587,242.144,674.8Z" opacity=".1" transform="translate(-215.564 -586.678)"/><path fill="#2f2e41" d="M174.631,605.518c-.487,1.31.229,2.726.85,3.978a69.559,69.559,0,0,1,3.652,9.653,1.183,1.183,0,0,1,.07.756.99.99,0,0,1-.357.423,8.425,8.425,0,0,1-2.527,1.041,11.41,11.41,0,0,0-2.4,1.123c-.63.39-1.219.84-1.808,1.29l-1.874,1.431a1.251,1.251,0,0,0-.313.3,1.224,1.224,0,0,0-.017.977,16.624,16.624,0,0,0,.917,2.5.874.874,0,0,0,.333.436c.292.157.65-.051.873-.3s.416-.551.731-.657.66.022.989-.024c.531-.075.884-.564,1.266-.939,1.564-1.534,4.175-1.423,5.9-2.78a7.51,7.51,0,0,1,.788-.616c.291-.172.621-.266.923-.418a3.911,3.911,0,0,0,1.8-2.4c.309-.98.4-2.015.619-3.018a13.123,13.123,0,0,0,.317-1.561,8.362,8.362,0,0,0-.032-1.476l-.621-7.68c-.051-.625-.1-1.251-.2-1.871-1.844.066-3.686.14-5.531.162A13.194,13.194,0,0,1,174.631,605.518Z" transform="translate(-153.006 -531.772)"/><path fill="#2f2e41" d="M201.276,598.92a.985.985,0,0,0,1.278.173c.419-.221.745-.591,1.165-.81a3.786,3.786,0,0,1,1.869-.265,12.147,12.147,0,0,1,3,.335,8.246,8.246,0,0,0,3.015.726.62.62,0,0,0,.476-.223.7.7,0,0,0,.078-.359l.034-.906a.818.818,0,0,0-.072-.459.769.769,0,0,0-.344-.263,11.856,11.856,0,0,0-4.8-.9q-1.249-.043-2.5-.035a9.11,9.11,0,0,0-2.244.091C201.31,596.276,200.808,598.167,201.276,598.92Z" transform="translate(-180.329 -523.377)"/><path fill="#aff68c" d="M209.123,423.058c-1.933-.017-3.685-1.293-5.618-1.324a1.457,1.457,0,0,0-.682.118,2.54,2.54,0,0,0-.651.62c-.572.619-1.4.949-1.986,1.553a2.3,2.3,0,0,0-.639,2.17,1.612,1.612,0,0,0,1.806,1.159,4.655,4.655,0,0,1,1.814-2.464,9.216,9.216,0,0,1,1.417-.744,3.924,3.924,0,0,1,2.747-.5,3.876,3.876,0,0,1,.937.511l1.512,1.016A10.525,10.525,0,0,0,209.123,423.058Z" transform="translate(-178.913 -371.232)"/><path fill="#aff68c" d="M193.978,437.545c-.257.32.113.784.057,1.191-.038.27-.26.476-.352.733a3.928,3.928,0,0,0-.081.84,3.6,3.6,0,0,1-.161.6,10.753,10.753,0,0,0-.34,1.774l-.338,2.527a9.565,9.565,0,0,0-.107,1.148,3.43,3.43,0,0,1-.057.858,6.349,6.349,0,0,1-.352.781.915.915,0,0,0-.013.825,1.443,1.443,0,0,0-.3,1.8,1,1,0,0,1,.156.287.736.736,0,0,1-.069.423l-.342.912c-.088.233-.115.589.128.642a2.151,2.151,0,0,0-.462.729.869.869,0,0,0,.123.823,1.05,1.05,0,0,1,.214.26.693.693,0,0,1-.025.41,1.506,1.506,0,0,0,.186,1.181,1.059,1.059,0,0,0,1.065.456,4.865,4.865,0,0,1,1.989-.271,35.535,35.535,0,0,1,4.415,1.006,24.1,24.1,0,0,0,4.949,1.455.48.48,0,0,0,.331-.052.5.5,0,0,0,.153-.315l.53-2.487a25.594,25.594,0,0,0,.488-2.786c.06-.6.078-1.213.095-1.82l.137-4.836a4.831,4.831,0,0,0-.278-2.1l-.786-2.511c-.449-1.433-1.478-2.7-1.845-4.159a6.149,6.149,0,0,0-1.026-2.629,4.2,4.2,0,0,0-3.765-1.007,4.5,4.5,0,0,0-1.744.531,5.714,5.714,0,0,0-1.487,1.5C194.706,436.719,194.343,437.09,193.978,437.545Z" transform="translate(-171.76 -382.095)"/><path fill="#fbbebe" d="M236.481,551.661c.111.477.343.917.485,1.386.238.785.218,1.631.456,2.417.1.33.245.646.316.983a4.074,4.074,0,0,1-.38,2.342,9.15,9.15,0,0,0-.77,2.274,1.742,1.742,0,0,0,.463,1.56,2.279,2.279,0,0,0,1.687.3,1.772,1.772,0,0,0,.612-.127,1.653,1.653,0,0,0,.741-1.225,18.181,18.181,0,0,0,.149-4.958l-.266-4.33a10.135,10.135,0,0,0-.363-2.485,2.37,2.37,0,0,0-.522-1.065,3.515,3.515,0,0,0-1.342-.208C236.216,548.454,236.233,550.59,236.481,551.661Z" transform="translate(-211.127 -481.987)"/><path fill="#2f2e41" d="M229.6,446.288a1.054,1.054,0,0,0-1.008.089,3.107,3.107,0,0,0-.755.733,4.162,4.162,0,0,0-1.29,2.831,7.182,7.182,0,0,0,.293,1.16c.453,1.692-.048,3.482.01,5.233a16.385,16.385,0,0,0,.473,3c.045.2.116.435.312.5a.676.676,0,0,0,.45-.07,3.589,3.589,0,0,1,3.284.414c.362-.193.227-.8.145-1.207a6.939,6.939,0,0,1,.484-3.584,13.2,13.2,0,0,0,.94-3.525,10.769,10.769,0,0,0-.835-4.035,1.3,1.3,0,0,0-1.093-1.082A7.535,7.535,0,0,1,229.6,446.288Z" transform="translate(-202.547 -392.603)"/></g></svg>