<svg xmlns="http://www.w3.org/2000/svg" xmlns:xlink="http://www.w3.org/1999/xlink" width="449" height="175.245" viewBox="0 0 449 175.245"><defs><linearGradient id="linear-gradient" x1=".5" x2=".5" y1="1" gradientUnits="objectBoundingBox"><stop offset="0" stop-color="gray" stop-opacity=".251"/><stop offset=".54" stop-color="gray" stop-opacity=".122"/><stop offset="1" stop-color="gray" stop-opacity=".102"/></linearGradient><linearGradient id="linear-gradient-2" x1=".5" x2=".5" y1="1" y2="-.001" xlink:href="#linear-gradient"/></defs><g id="bg-contact" opacity=".95" transform="translate(0 -55.275)"><ellipse id="Ellipse_59" cx="224.5" cy="3.557" fill="#aff68c" data-name="Ellipse 59" opacity=".1" rx="224.5" ry="3.557" transform="translate(0 194.2)"/><ellipse id="Ellipse_60" cx="224.5" cy="3.557" fill="#aff68c" data-name="Ellipse 60" opacity=".1" rx="224.5" ry="3.557" transform="translate(0 223.406)"/><ellipse id="Ellipse_61" cx="224.5" cy="3.557" fill="#aff68c" data-name="Ellipse 61" opacity=".1" rx="224.5" ry="3.557" transform="translate(0 133.247)"/><ellipse id="Ellipse_62" cx="224.5" cy="3.557" fill="#aff68c" data-name="Ellipse 62" opacity=".1" rx="224.5" ry="3.557" transform="translate(0 163.721)"/><path id="Path_169" fill="none" stroke="#3f3d56" stroke-miterlimit="10" stroke-width="4" d="M709.594,589.157c1.048-1.943-.14-4.32-1.505-6.05s-3.035-3.533-3-5.737c.052-3.168,3.417-5.042,6.1-6.72a29.825,29.825,0,0,0,5.48-4.416,8.082,8.082,0,0,0,1.682-2.256,9.127,9.127,0,0,0,.506-4.015q-.173-6.781-.671-13.553" data-name="Path 169" transform="translate(-437.363 -392.552)"/><path id="Path_170" fill="#aff68c" d="M735.722,538.822a4.942,4.942,0,0,0-2.469-4.051l-1.108,2.188.036-2.65a4.942,4.942,0,1,0,3.541,4.512Z" data-name="Path 170" transform="translate(-449.662 -385.189)"/><path id="Path_171" fill="#aff68c" d="M714.57,618.494a4.942,4.942,0,0,1-9.33-2.007,4.817,4.817,0,0,1,.321-2.007,4.946,4.946,0,0,1,9.234.052l-3.087,2.513,3.4-.8A4.915,4.915,0,0,1,714.57,618.494Z" data-name="Path 171" transform="translate(-437.499 -431.412)"/><path id="Path_172" fill="#aff68c" d="M714.695,590.538a4.942,4.942,0,0,1-1.566-9.7l-.028,2.035,1.12-2.216h0a4.943,4.943,0,1,1,.462,9.876Z" data-name="Path 172" transform="translate(-440.029 -413.05)"/><path id="Path_173" fill="#aff68c" d="M744.551,570.654a4.942,4.942,0,1,1,2.184-9.234l-.871,2.409,1.779-1.758a4.942,4.942,0,0,1-3.107,8.579Z" data-name="Path 173" transform="translate(-457.635 -401.151)"/><path id="Path_174" d="M735.044,544.18c-1.14.124-2.248.478-3.4.55a3.675,3.675,0,0,1-3.123-1.092,15.873,15.873,0,0,1-.915-1.606,3.516,3.516,0,0,0-1.245-1.172,4.942,4.942,0,1,0,9.234,3.284C735.417,544.148,735.229,544.16,735.044,544.18Z" data-name="Path 174" opacity=".1" transform="translate(-449.652 -389.231)"/><path id="Path_175" d="M744.583,574.87a4.942,4.942,0,0,1-4.7-7.05,3.657,3.657,0,0,1,.992,1,16.758,16.758,0,0,0,.979,1.634,4.032,4.032,0,0,0,3.28,1.144c1.192-.06,2.345-.4,3.533-.5.165,0,.329-.024.5-.028A4.942,4.942,0,0,1,744.583,574.87Z" data-name="Path 175" opacity=".1" transform="translate(-457.668 -405.367)"/><path id="Path_176" d="M714.7,594.9a4.942,4.942,0,0,1-4.741-6.957,4.015,4.015,0,0,1,1.048,1,16.558,16.558,0,0,0,1.072,1.666,4.475,4.475,0,0,0,3.5,1.2c1.261-.052,2.409-.325,3.613-.4A4.95,4.95,0,0,1,714.7,594.9Z" data-name="Path 176" opacity=".1" transform="translate(-440.034 -417.41)"/><path id="Path_177" d="M714.57,623.185a4.942,4.942,0,0,1-9.33-2.007,4.817,4.817,0,0,1,.321-2.007,4.936,4.936,0,0,1,1.084.967c.47.57.779,1.2,1.325,1.754a6.176,6.176,0,0,0,4.091,1.437,20.753,20.753,0,0,0,2.509-.145Z" data-name="Path 177" opacity=".1" transform="translate(-437.506 -436.102)"/><path id="Path_178" fill="none" stroke="#3f3d56" stroke-miterlimit="10" stroke-width="4" d="M99.594,517.157c1.048-1.943-.141-4.32-1.505-6.05s-3.035-3.541-3-5.737c.052-3.168,3.416-5.042,6.1-6.72a29.827,29.827,0,0,0,5.48-4.416,8.081,8.081,0,0,0,1.682-2.256,9.125,9.125,0,0,0,.506-4.015q-.177-6.781-.67-13.553" data-name="Path 178" transform="translate(-77.79 -349.458)"/><path id="Path_179" fill="#aff68c" d="M125.722,466.822a4.942,4.942,0,0,0-2.469-4.051l-1.108,2.188.036-2.65a4.942,4.942,0,1,0,3.541,4.512Z" data-name="Path 179" transform="translate(-90.213 -342.094)"/><path id="Path_180" fill="#aff68c" d="M104.569,546.494a4.942,4.942,0,0,1-9.33-2.007,4.818,4.818,0,0,1,.321-2.007,4.946,4.946,0,0,1,9.234.052l-3.087,2.513,3.4-.8A4.914,4.914,0,0,1,104.569,546.494Z" data-name="Path 180" transform="translate(-77.876 -388.317)"/><path id="Path_181" fill="#aff68c" d="M104.695,518.538a4.942,4.942,0,0,1-1.566-9.7l-.028,2.035,1.12-2.216h0a4.943,4.943,0,1,1,.462,9.876Z" data-name="Path 181" transform="translate(-80.442 -369.955)"/><path id="Path_182" fill="#aff68c" d="M134.551,498.654a4.942,4.942,0,1,1,2.184-9.234l-.871,2.409,1.778-1.758a4.942,4.942,0,0,1-3.107,8.579Z" data-name="Path 182" transform="translate(-98.3 -358.056)"/><path id="Path_183" d="M125.044,472.18c-1.14.124-2.248.478-3.4.55a3.675,3.675,0,0,1-3.123-1.092,15.855,15.855,0,0,1-.915-1.606,3.517,3.517,0,0,0-1.245-1.172,4.942,4.942,0,1,0,9.234,3.284C125.417,472.148,125.229,472.16,125.044,472.18Z" data-name="Path 183" opacity=".1" transform="translate(-90.201 -346.136)"/><path id="Path_184" d="M134.584,502.87a4.942,4.942,0,0,1-4.7-7.05,3.658,3.658,0,0,1,.992,1,16.743,16.743,0,0,0,.98,1.634,4.031,4.031,0,0,0,3.28,1.144c1.192-.06,2.345-.4,3.533-.5.165,0,.329-.024.5-.028A4.942,4.942,0,0,1,134.584,502.87Z" data-name="Path 184" opacity=".1" transform="translate(-98.332 -362.272)"/><path id="Path_185" d="M104.7,522.9a4.942,4.942,0,0,1-4.741-6.957,4.015,4.015,0,0,1,1.048,1,16.555,16.555,0,0,0,1.072,1.666,4.475,4.475,0,0,0,3.5,1.2c1.261-.052,2.409-.325,3.613-.4A4.95,4.95,0,0,1,104.7,522.9Z" data-name="Path 185" opacity=".1" transform="translate(-80.445 -374.315)"/><path id="Path_186" d="M104.569,551.185a4.942,4.942,0,0,1-9.33-2.007,4.818,4.818,0,0,1,.321-2.007,4.935,4.935,0,0,1,1.084.968c.47.57.779,1.2,1.325,1.754a6.176,6.176,0,0,0,4.091,1.437A20.754,20.754,0,0,0,104.569,551.185Z" data-name="Path 186" opacity=".1" transform="translate(-77.876 -393.007)"/><path id="Path_187" fill="none" stroke="#3f3d56" stroke-miterlimit="10" stroke-width="4" d="M498.686,434.8c-1.048-1.939.14-4.316,1.509-6.046s3.031-3.533,2.995-5.737c-.048-3.172-3.412-5.042-6.1-6.72a29.706,29.706,0,0,1-5.476-4.416,7.941,7.941,0,0,1-1.686-2.252,9.251,9.251,0,0,1-.506-4.015q.181-6.781.67-13.553" data-name="Path 187" transform="translate(-310.098 -300.168)"/><path id="Path_188" fill="#aff68c" d="M478.382,384.462a4.938,4.938,0,0,1,2.465-4.051l1.108,2.188-.032-2.65a5.066,5.066,0,0,1,1.626-.2,4.942,4.942,0,1,1-5.167,4.709Z" data-name="Path 188" transform="translate(-303.622 -292.799)"/><path id="Path_189" fill="#aff68c" d="M499.526,464.075a4.942,4.942,0,1,0-.237-3.978l3.087,2.513-3.4-.8A4.914,4.914,0,0,0,499.526,464.075Z" data-name="Path 189" transform="translate(-315.781 -338.962)"/><path id="Path_190" fill="#aff68c" d="M499.4,436.177a4.942,4.942,0,0,0,1.57-9.7l.024,2.035-1.12-2.216h0a4.942,4.942,0,0,0-5.179,4.693,4.883,4.883,0,0,0,.213,1.686,4.938,4.938,0,0,0,4.492,3.5Z" data-name="Path 190" transform="translate(-313.246 -320.659)"/><path id="Path_191" fill="#aff68c" d="M469.5,416.273a4.942,4.942,0,1,0-2.188-9.234l.875,2.409-1.8-1.722a4.9,4.9,0,0,0-1.606,3.412,4.783,4.783,0,0,0,.124,1.361A4.938,4.938,0,0,0,469.5,416.273Z" data-name="Path 191" transform="translate(-295.594 -308.748)"/><path id="Path_192" d="M479.224,389.82c1.14.124,2.248.478,3.392.55a3.691,3.691,0,0,0,3.127-1.092,15.811,15.811,0,0,0,.911-1.606A3.53,3.53,0,0,1,487.9,386.5a4.942,4.942,0,1,1-9.234,3.28C478.851,389.784,479.035,389.8,479.224,389.82Z" data-name="Path 192" opacity=".1" transform="translate(-303.796 -296.84)"/><path id="Path_193" d="M469.711,420.49a4.946,4.946,0,0,0,4.7-7.05,3.674,3.674,0,0,0-1,1,16.742,16.742,0,0,1-.98,1.634,4.018,4.018,0,0,1-3.276,1.144c-1.192-.06-2.345-.4-3.533-.5-.165,0-.333-.024-.5-.028a4.938,4.938,0,0,0,4.581,3.806Z" data-name="Path 193" opacity=".1" transform="translate(-295.806 -312.965)"/><path id="Path_194" d="M499.728,440.537a4.938,4.938,0,0,0,4.741-6.957,3.947,3.947,0,0,0-1.044,1,16.562,16.562,0,0,1-1.072,1.666,4.484,4.484,0,0,1-3.5,1.2c-1.265-.052-2.409-.325-3.613-.4A4.938,4.938,0,0,0,499.728,440.537Z" data-name="Path 194" opacity=".1" transform="translate(-313.576 -325.019)"/><path id="Path_195" d="M500.34,468.825a4.942,4.942,0,0,0,9.013-4.015,4.745,4.745,0,0,0-1.084.968c-.47.57-.8,1.2-1.325,1.754a6.186,6.186,0,0,1-4.095,1.437A21.658,21.658,0,0,1,500.34,468.825Z" data-name="Path 195" opacity=".1" transform="translate(-316.588 -343.712)"/><circle id="Ellipse_63" cx="40.13" cy="40.13" r="40.13" fill="#3f3d56" data-name="Ellipse 63" transform="translate(279.728 55.275)"/><path id="Path_196" fill="#aff68c" d="M821.687,383.889a30.407,30.407,0,0,0-6.423-4.292c-1.923-.923-2.63-.907-3.991.076-1.132.8-1.867,1.578-3.167,1.293s-3.878-2.228-6.371-4.713-4.428-5.046-4.705-6.367.486-2.039,1.3-3.172c.98-1.361,1.008-2.068.076-3.991a30.789,30.789,0,0,0-4.3-6.423c-1.409-1.405-1.714-1.1-2.485-.8a14.374,14.374,0,0,0-2.276,1.2,6.868,6.868,0,0,0-2.73,2.887c-.55,1.172-1.172,3.348,2.027,9.045a50.46,50.46,0,0,0,8.872,11.831h0a50.537,50.537,0,0,0,11.871,8.888c5.693,3.212,7.873,2.573,9.045,2.027a6.739,6.739,0,0,0,2.882-2.73,14.179,14.179,0,0,0,1.2-2.276C822.783,385.6,823.1,385.29,821.687,383.889Z" data-name="Path 196" transform="translate(-484.855 -278.135)"/><path id="Path_197" d="M771.846,300.86a40.146,40.146,0,1,0,40.126,40.133A40.146,40.146,0,0,0,771.846,300.86Zm0,74.92a34.795,34.795,0,1,1,34.795-34.794,34.794,34.794,0,0,1-34.795,34.794Z" data-name="Path 197" opacity=".1" transform="translate(-451.989 -245.581)"/><circle id="Ellipse_64" cx="40.13" cy="40.13" r="40.13" fill="#3f3d56" data-name="Ellipse 64" transform="translate(185.226 116.229)"/><path id="Path_198" fill="#aff68c" d="M590.283,522.313l-12.016,12.225a.217.217,0,0,0,0,.313l8.431,8.965a1.451,1.451,0,1,1-2.051,2.051l-8.387-8.932a.229.229,0,0,0-.321,0L573.9,539a8.981,8.981,0,0,1-6.423,2.7,9.178,9.178,0,0,1-6.536-2.778l-1.963-2.007a.229.229,0,0,0-.321,0l-8.366,8.912a1.451,1.451,0,1,1-2.051-2.051l8.4-8.945a.241.241,0,0,0,0-.313l-12.016-12.224a.221.221,0,0,0-.377.157V546.91a3.581,3.581,0,0,0,3.569,3.569H587.1a3.581,3.581,0,0,0,3.569-3.569V522.47a.221.221,0,0,0-.385-.157Z" data-name="Path 198" transform="translate(-342.106 -378.078)"/><path id="Path_199" fill="#aff68c" d="M569.5,533.052a6.078,6.078,0,0,0,4.384-1.807l17.5-17.813a3.493,3.493,0,0,0-2.208-.8H549.858a3.468,3.468,0,0,0-2.208.8l17.5,17.813A6.054,6.054,0,0,0,569.5,533.052Z" data-name="Path 199" transform="translate(-344.147 -372.334)"/><path id="Path_200" d="M540.936,452.69a40.146,40.146,0,1,0,40.126,40.133A40.146,40.146,0,0,0,540.936,452.69Zm0,74.92a34.794,34.794,0,1,1,34.794-34.794A34.794,34.794,0,0,1,540.936,527.61Z" data-name="Path 200" opacity=".1" transform="translate(-316.099 -336.457)"/><circle id="Ellipse_65" cx="40.13" cy="40.13" r="40.13" fill="#3f3d56" data-name="Ellipse 65" transform="translate(87.605 86.26)"/><path id="Path_201" fill="#aff68c" d="M341,430.16l-16,36.91,1.493,1.493,14.509-6.4,14.509,6.4L357,467.07Z" data-name="Path 201" transform="translate(-212.984 -322.972)"/><path id="Path_202" d="M304.966,378a40.123,40.123,0,1,0,.007,0Zm0,74.92a28.669,28.669,0,1,1,0,.016Z" data-name="Path 202" opacity=".1" transform="translate(-177.232 -291.752)"/><path id="Path_203" fill="url(#linear-gradient)" d="M812.36,577.891q-.546-1.333-1.12-2.658a7.888,7.888,0,0,0-1.369-2.365,2.5,2.5,0,0,0-.8-.6,3.425,3.425,0,0,0-1.048-.209,8.369,8.369,0,0,0-1.646-.044c-.213-.064-.454-.149-.69-.245a5.733,5.733,0,0,0,4.272-5.319c0-.08,0-.165,0-.245a5.721,5.721,0,0,0-5.7-5.745,5.621,5.621,0,0,0-2.991.855,5.368,5.368,0,0,0-6.022,2.9,6.636,6.636,0,0,0-2.047,4.938v.253c.1,3.119,2.12,5.62,4.665,5.873a2.675,2.675,0,0,0-.739.494,4.57,4.57,0,0,0-.992,3.027l-.06.8-1.349.482a.249.249,0,0,0-.06.438l1.289.919v.229a1,1,0,0,0,.024.261,1.844,1.844,0,0,0-.5.711,3.285,3.285,0,0,0-.116,1.3l.048,1.12a8.8,8.8,0,0,0,.341,2.493c.169.5.9,1.7,1.425,1.706a51.937,51.937,0,0,0-.614,6.865c-.06.06.108.116.4.165.289,2.216,1.232,8.431,2.907,11.165a23.535,23.535,0,0,1,.63,2.714s.478,5.905,1.108,7.66a39,39,0,0,1,1.08,6.247.614.614,0,0,0-.446.458c-.317.956-2.373,2.409-2.373,2.409a9.939,9.939,0,0,0-1.774,1.136c-.646.582-.622,1.108,2.248.779,5.54-.638,6.488-2.409,6.488-2.409s-.088-.3-.221-.683a7.417,7.417,0,0,0-.727-1.714c-.08-.076-.161.052-.257.253a34.382,34.382,0,0,1-.377-7.752,12.578,12.578,0,0,0-.634-4.629,8.766,8.766,0,0,1,0-3.031c.317-1.277-1.265-7.5-1.265-7.5l-.907-4.585a1.317,1.317,0,0,1,.253.534l.024.092.024.133a.249.249,0,0,0,.064.124c.618,2.569,2.312,9.687,2.312,10.731,0,1.277,1.582,4.468,1.582,4.468s.63,5.267,1.738,7.339a10.641,10.641,0,0,1,.823,4.91h0a4.548,4.548,0,0,1-.506,1.63,3.879,3.879,0,0,0-.6,1.04l-.036.076s-.474.96-.157,1.12a7.777,7.777,0,0,0,3.8.478s.634-.8.634-1.116a5.028,5.028,0,0,0-.072-.57c-.116-.755-.333-1.943-.337-1.955a5.481,5.481,0,0,0-.4-1.943l-.161-4.468a20.627,20.627,0,0,0-1.108-8.941,14.835,14.835,0,0,1-.63-3.669c.173-.8-.317-9.258-.317-9.258l-.048-.12a9.138,9.138,0,0,1,.048-1.794,23.839,23.839,0,0,0-.634-6.062,5.261,5.261,0,0,1-.225-1.321c.036-.333.145-1.309.293-2.521a45.3,45.3,0,0,0,4.665-.4.582.582,0,0,0,.4-.161.562.562,0,0,0,.092-.325C814.15,582.452,813.271,580.115,812.36,577.891Zm-3.184,5.062c.165-1.144.341-2.252.518-3.075l.024.072a22.325,22.325,0,0,1,.763,2.529A8.6,8.6,0,0,1,809.176,582.954Z" data-name="Path 203" transform="translate(-489.247 -400.962)"/><path id="Path_204" fill="#be6f72" d="M802.37,648.213s.947,8.523,3,11.835a22.972,22.972,0,0,1,.63,2.682s.474,5.837,1.1,7.572a41.777,41.777,0,0,1,1.1,6.471s2.208,2.521,3,.474a33.25,33.25,0,0,1-.474-8.206,12.359,12.359,0,0,0-.63-4.577,8.559,8.559,0,0,1,0-2.995c.313-1.265-1.265-7.415-1.265-7.415l-1.261-6.154Z" data-name="Path 204" transform="translate(-494.839 -453.298)"/><path id="Path_205" fill="#ff6f61" d="M813.634,721.363s-.947,1.734-6.468,2.365c-2.866.325-2.886-.193-2.24-.771a10,10,0,0,1,1.766-1.124s2.051-1.417,2.365-2.365,1.421-.157,1.421-.157c1.578,2.365,1.895-.634,2.208-.317a7.117,7.117,0,0,1,.727,1.69C813.546,721.066,813.634,721.363,813.634,721.363Z" data-name="Path 205" transform="translate(-496.141 -495.837)"/><path id="Path_206" d="M813.634,723.918s-.947,1.734-6.468,2.365c-2.866.325-2.886-.193-2.24-.771.45.285,1.357.4,3.184-.333,2.63-1.076,4.536-1.7,5.3-1.939C813.546,723.621,813.634,723.918,813.634,723.918Z" data-name="Path 206" opacity=".1" transform="translate(-496.141 -498.392)"/><path id="Path_207" d="M816.867,669.041a12.357,12.357,0,0,0-.63-4.577,8.559,8.559,0,0,1,0-2.995c.313-1.265-1.265-7.415-1.265-7.415l-1.261-6.154-1.092.064,1.249,6.09s1.578,6.15,1.265,7.415a8.559,8.559,0,0,0,0,2.995,12,12,0,0,1,.63,4.577,33.247,33.247,0,0,0,.474,8.206,1.381,1.381,0,0,1-.458.65,1.031,1.031,0,0,0,1.562-.65A33.247,33.247,0,0,1,816.867,669.041Z" data-name="Path 207" opacity=".1" transform="translate(-500.948 -453.298)"/><path id="Path_208" fill="#3f3d56" d="M804.172,562.42a5.622,5.622,0,0,0-2.979.847,5.36,5.36,0,0,0-6.022,2.87,6.536,6.536,0,0,0-2.043,4.882c0,3.356,2.26,6.074,5.046,6.074a5.1,5.1,0,0,0,4.573-3.5,5.543,5.543,0,0,0,1.421.185,5.681,5.681,0,0,0,0-11.361Z" data-name="Path 208" transform="translate(-489.268 -402.135)"/><path id="Path_209" fill="#be6f72" d="M822.8,650.65l.474,1.261s.474,8.362.313,9.153a14.91,14.91,0,0,0,.634,3.613,20.2,20.2,0,0,1,1.1,8.832l.157,4.416s.63,1.734.317,2.051-2.694-.281-2.694-.281.317-3.312-.8-5.364-1.734-7.258-1.734-7.258-1.578-3.156-1.578-4.416-2.525-11.518-2.525-11.518Z" data-name="Path 209" transform="translate(-503.145 -454.944)"/><path id="Path_210" fill="#3f3d56" d="M801.562,635.452s.161-5.681.8-7.415a11.775,11.775,0,0,0,.7-2.517s9.551,1.726,10.342,1.1a13.7,13.7,0,0,0,.317,2.365,22.687,22.687,0,0,1,.63,6c-.173,1.895,0,1.891,0,1.891s-6.472.947-6.628,0-.63-.943-.63-.943S801.249,635.749,801.562,635.452Z" data-name="Path 210" transform="translate(-494.296 -439.903)"/><g id="Group_32" data-name="Group 32" opacity=".1" transform="translate(307.266 186.713)"><path id="Path_211" d="M806.787,649.775s-3.991-.108-5.195-.325v.325c-.313.313,5.524.474,5.524.474a.4.4,0,0,1,.217.088C807.12,649.775,806.787,649.775,806.787,649.775Z" data-name="Path 211" transform="translate(-801.58 -640.939)"/><path id="Path_212" d="M822.836,630.615a13.7,13.7,0,0,1-.317-2.365.679.679,0,0,1-.269.1,7.99,7.99,0,0,0,.269,1.795,25.055,25.055,0,0,1,.63,6c-.173,1.895,0,1.891,0,1.891s-5.119.751-6.359.249a1.921,1.921,0,0,0,.048.225c.157.947,6.628,0,6.628,0s-.161,0,0-1.891A23.45,23.45,0,0,0,822.836,630.615Z" data-name="Path 212" transform="translate(-810.684 -628.25)"/><path id="Path_213" d="M806.787,649.775s-3.991-.108-5.195-.325v.325c-.313.313,5.524.474,5.524.474a.4.4,0,0,1,.217.088C807.12,649.775,806.787,649.775,806.787,649.775Z" data-name="Path 213" transform="translate(-801.58 -640.939)"/><path id="Path_214" d="M822.836,630.615a13.7,13.7,0,0,1-.317-2.365.679.679,0,0,1-.269.1,7.99,7.99,0,0,0,.269,1.795,25.055,25.055,0,0,1,.63,6c-.173,1.895,0,1.891,0,1.891s-5.119.751-6.359.249a1.921,1.921,0,0,0,.048.225c.157.947,6.628,0,6.628,0s-.161,0,0-1.891A23.45,23.45,0,0,0,822.836,630.615Z" data-name="Path 214" transform="translate(-810.684 -628.25)"/></g><path id="Path_215" fill="#be6f72" d="M813.836,584.761a2.092,2.092,0,0,0,.6.779,1.35,1.35,0,0,0,.566.245c-.353.2-.739.357-1.092.562a19.4,19.4,0,0,0-1.606,1.2,3.268,3.268,0,0,1-1.843.715,2.256,2.256,0,0,0,.257-2.244,2.1,2.1,0,0,1-.281-.779,1.4,1.4,0,0,1,.775-1.044c.3-.2.61-.4.923-.6.245-.153.614-.474.923-.462s.345.285.4.566A4.452,4.452,0,0,0,813.836,584.761Z" data-name="Path 215" transform="translate(-499.663 -414.536)"/><path id="Path_216" d="M813.836,584.761a2.092,2.092,0,0,0,.6.779,1.35,1.35,0,0,0,.566.245c-.353.2-.739.357-1.092.562a19.4,19.4,0,0,0-1.606,1.2,3.268,3.268,0,0,1-1.843.715,2.256,2.256,0,0,0,.257-2.244,2.1,2.1,0,0,1-.281-.779,1.4,1.4,0,0,1,.775-1.044c.3-.2.61-.4.923-.6.245-.153.614-.474.923-.462s.345.285.4.566A4.452,4.452,0,0,0,813.836,584.761Z" data-name="Path 216" opacity=".1" transform="translate(-499.663 -414.536)"/><circle id="Ellipse_66" cx="3.629" cy="3.629" r="3.629" fill="#be6f72" data-name="Ellipse 66" transform="translate(314.352 172.277)"/><path id="Path_217" fill="#ff6f61" d="M834.133,724.045c0,.317-.63,1.1-.63,1.1a7.812,7.812,0,0,1-3.786-.474c-.317-.157.157-1.1.157-1.1l.036-.076a3.832,3.832,0,0,1,.6-1.028,4.493,4.493,0,0,0,.5-1.606c.98-1.606,2.718.695,2.718.695s.221,1.2.337,1.935A5.493,5.493,0,0,1,834.133,724.045Z" data-name="Path 217" transform="translate(-510.978 -496.628)"/><path id="Path_218" d="M834.133,728.8c0,.317-.63,1.1-.63,1.1a7.814,7.814,0,0,1-3.786-.474c-.317-.157.157-1.1.157-1.1l.036-.076a7.628,7.628,0,0,0,3.437.707l.719-.719C834.1,728.509,834.133,728.722,834.133,728.8Z" data-name="Path 218" opacity=".1" transform="translate(-510.978 -501.385)"/><circle id="Ellipse_67" cx="3.549" cy="3.549" r="3.549" fill="#be6f72" data-name="Ellipse 67" transform="translate(307.023 164.781)"/><path id="Path_219" fill="#be6f72" d="M801.186,598.725a4.456,4.456,0,0,0-.988,2.991l-.12,1.57a7.927,7.927,0,0,0-.028,1.273c0,.261.064.526.088.8s.032.626.036.943v2.32a2.738,2.738,0,0,0,.257,1.393.947.947,0,0,0,1.2.434,1.373,1.373,0,0,0,.5-.771,11.982,11.982,0,0,0,.8-2.939c.032-.349.036-.7.068-1.048s.092-.715.145-1.068c.225-1.477.325-2.971.426-4.46.028-.442.426-2.18-.153-2.373-.281-.092-.863.2-1.132.293a3.186,3.186,0,0,0-1.1.638Z" data-name="Path 219" transform="translate(-493.535 -423.297)"/><path id="Path_220" d="M801.186,598.725a4.456,4.456,0,0,0-.988,2.991l-.12,1.57a7.927,7.927,0,0,0-.028,1.273c0,.261.064.526.088.8s.032.626.036.943v2.32a2.738,2.738,0,0,0,.257,1.393.947.947,0,0,0,1.2.434,1.373,1.373,0,0,0,.5-.771,11.982,11.982,0,0,0,.8-2.939c.032-.349.036-.7.068-1.048s.092-.715.145-1.068c.225-1.477.325-2.971.426-4.46.028-.442.426-2.18-.153-2.373-.281-.092-.863.2-1.132.293a3.186,3.186,0,0,0-1.1.638Z" data-name="Path 220" opacity=".1" transform="translate(-493.535 -423.297)"/><path id="Path_221" fill="#ff6f61" d="M811.2,588.16a19.463,19.463,0,0,1-4.259,2.525s-.935,1.068-1.1,1.325-.482,3.091-.8,3.726a3.015,3.015,0,0,0,0,3.469,6.015,6.015,0,0,1,.156,1.895c-.156.474-.731,2.208-.209,2.288s2.1,1.18,3.521.867,6.708,1.2,6.708,1.2.875-8.13,1.509-9.567l-1.421-.474s-3.942-2.365-1.578-5.994C813.724,589.425,811.508,588.951,811.2,588.16Z" data-name="Path 221" transform="translate(-496.027 -417.542)"/><path id="Path_222" fill="#3f3d56" d="M796.69,610.306l3.26,2.308a.241.241,0,0,0,.285,0l.883-.662a.249.249,0,0,0,0-.377l-2.509-2.228a.241.241,0,0,0-.245-.048l-1.61.578a.245.245,0,0,0-.064.43Z" data-name="Path 222" transform="translate(-491.487 -430.185)"/><path id="Path_223" fill="#be6f72" d="M798.96,619.888a8.734,8.734,0,0,1-.341-2.461l-.048-1.112a3.212,3.212,0,0,1,.116-1.285,2.1,2.1,0,0,1,1.353-1.184,4.672,4.672,0,0,1,1.843-.133.474.474,0,0,1,.237.064.441.441,0,0,1,.128.217,1.453,1.453,0,0,1,.072,1.16,1.2,1.2,0,0,1-.369.381c-.438.313-.948.522-1.361.863a.494.494,0,0,0-.185.233.542.542,0,0,0,0,.253,4.041,4.041,0,0,0,.209.646.638.638,0,0,0,.181.273c.076.064.177.088.257.149.173.141.534.325.514.546a17.988,17.988,0,0,1-.731,2.5C800.473,622.55,799.192,620.567,798.96,619.888Z" data-name="Path 223" transform="translate(-492.656 -432.814)"/><g id="Group_33" data-name="Group 33" opacity=".1" transform="translate(311.476 178.114)"><path id="Path_224" d="M812.068,628.194h-.088a2.7,2.7,0,0,0,1.032,0h.1a3.611,3.611,0,0,0-1.044,0Z" data-name="Path 224" transform="translate(-811.98 -619.594)"/><path id="Path_225" d="M830.52,606.83c-.566,1.273-1.4,8.166-1.55,9.535.554.145.919.249.919.249s.867-8.109,1.5-9.547Z" data-name="Path 225" transform="translate(-822.149 -606.83)"/></g><path id="Path_226" fill="#be6f72" d="M818.537,595.157a1.2,1.2,0,0,0,.518.783,6.948,6.948,0,0,1,.919.931,6.6,6.6,0,0,1,.911,1.827,22.375,22.375,0,0,1,.759,2.5c-2.007.931-4.288.887-6.423,1.5a5.127,5.127,0,0,0-2.409,1.425,3.32,3.32,0,0,0-.887,2.613.273.273,0,0,0,.329.269,2.408,2.408,0,0,0,1.473-.506,7.009,7.009,0,0,0,1.128-1.108,1.814,1.814,0,0,1,.8-.594,13.141,13.141,0,0,1,3.613-.353,45.534,45.534,0,0,0,5.383-.426.434.434,0,0,0,.482-.482c.177-2.369-.7-4.681-1.606-6.877q-.542-1.321-1.116-2.63a7.788,7.788,0,0,0-1.365-2.337,2.409,2.409,0,0,0-.8-.594,3.4,3.4,0,0,0-1.076-.2,7.63,7.63,0,0,0-1.762-.032,3.753,3.753,0,0,0-.169.911,7.9,7.9,0,0,0,.972,3.079C818.272,595,818.444,595.013,818.537,595.157Z" data-name="Path 226" transform="translate(-500.401 -419.139)"/><path id="Path_227" fill="none" stroke="#000" stroke-miterlimit="10" stroke-width="1" d="M811.811,606.67a2.942,2.942,0,0,0-.4,1.534,2.065,2.065,0,0,0,.1.626,2.031,2.031,0,0,0,1.281,1.2" data-name="Path 227" opacity=".1" transform="translate(-500.281 -428.62)"/><path id="Path_228" fill="#3f3d56" d="M806.666,571.935a1.842,1.842,0,0,0-.582.092,3.849,3.849,0,0,0-3.212-1.357c-1.919,0-3.473.992-3.473,2.212s1.554,2.208,3.473,2.208a4.885,4.885,0,0,0,2.084-.442,1.891,1.891,0,1,0,1.7-2.714Z" data-name="Path 228" transform="translate(-493.081 -407.073)"/><path id="Path_229" d="M806.811,577.509a1.887,1.887,0,0,1-1.7-1.072,4.885,4.885,0,0,1-2.083.442c-1.915,0-3.469-.988-3.469-2.208a1.314,1.314,0,0,1,0-.221,1.5,1.5,0,0,0-.177.695c0,1.2,1.554,2.208,3.473,2.208a4.886,4.886,0,0,0,2.084-.442,1.891,1.891,0,0,0,3.561-.47A1.883,1.883,0,0,1,806.811,577.509Z" data-name="Path 229" opacity=".1" transform="translate(-493.07 -409.336)"/><path id="Path_230" d="M795.151,567.069a5.359,5.359,0,0,1,6.022-2.87,5.677,5.677,0,0,1,8.639,4.36v-.474a5.677,5.677,0,0,0-8.659-4.818,5.36,5.36,0,0,0-6.022,2.87,6.536,6.536,0,0,0-2.043,4.882v.474A6.423,6.423,0,0,1,795.151,567.069Z" data-name="Path 230" opacity=".1" transform="translate(-489.244 -402.135)"/><path id="Path_231" fill="none" stroke="#3f3d56" stroke-miterlimit="10" stroke-width="4" d="M881.674,513.273c1.048-1.939-.141-4.32-1.51-6.05s-3.031-3.529-2.995-5.737c.048-3.167,3.412-5.038,6.1-6.72a29.672,29.672,0,0,0,5.476-4.416,8,8,0,0,0,1.686-2.252,9.253,9.253,0,0,0,.506-4.015q-.177-6.785-.67-13.553" data-name="Path 231" transform="translate(-538.901 -347.135)"/><path id="Path_232" fill="#aff68c" d="M907.792,462.906a4.934,4.934,0,0,0-2.465-4.047l-1.108,2.188.032-2.65a4.849,4.849,0,0,0-1.626-.2,4.942,4.942,0,1,0,5.167,4.705Z" data-name="Path 232" transform="translate(-551.207 -339.752)"/><path id="Path_233" fill="#aff68c" d="M886.649,542.522a4.942,4.942,0,1,1,.237-3.982l-3.087,2.513,3.4-.8A4.914,4.914,0,0,1,886.649,542.522Z" data-name="Path 233" transform="translate(-539.049 -385.915)"/><path id="Path_234" fill="#aff68c" d="M886.767,514.624a4.942,4.942,0,0,1-1.57-9.7l-.024,2.035,1.12-2.212h0a4.943,4.943,0,1,1,.462,9.876Z" data-name="Path 234" transform="translate(-541.573 -367.615)"/><path id="Path_235" fill="#aff68c" d="M916.627,494.743a4.942,4.942,0,1,1,2.188-9.234l-.875,2.409,1.8-1.726a4.914,4.914,0,0,1,1.606,3.412,4.771,4.771,0,0,1-.124,1.361A4.942,4.942,0,0,1,916.627,494.743Z" data-name="Path 235" transform="translate(-559.185 -355.716)"/><path id="Path_236" d="M907.122,468.26c-1.14.128-2.252.482-3.4.554a3.682,3.682,0,0,1-3.127-1.1,15.33,15.33,0,0,1-.911-1.606,3.554,3.554,0,0,0-1.245-1.172,4.942,4.942,0,1,0,9.234,3.28C907.491,468.228,907.306,468.24,907.122,468.26Z" data-name="Path 236" opacity=".1" transform="translate(-551.201 -343.789)"/><path id="Path_237" d="M916.657,498.96a4.946,4.946,0,0,1-4.7-7.05,3.658,3.658,0,0,1,1,.992,15.843,15.843,0,0,0,.98,1.634,4.021,4.021,0,0,0,3.276,1.148c1.192-.056,2.344-.4,3.533-.5.165,0,.333-.028.5-.032A4.942,4.942,0,0,1,916.657,498.96Z" data-name="Path 237" opacity=".1" transform="translate(-559.218 -359.932)"/><path id="Path_238" d="M886.768,518.965A4.938,4.938,0,0,1,882.027,512a4.076,4.076,0,0,1,1.044,1c.4.542.622,1.168,1.072,1.666a4.575,4.575,0,0,0,3.5,1.229c1.265-.028,2.409-.329,3.613-.422A4.942,4.942,0,0,1,886.768,518.965Z" data-name="Path 238" opacity=".1" transform="translate(-541.577 -371.957)"/><path id="Path_239" d="M886.691,547.275a4.946,4.946,0,0,1-9.013-4.015,4.843,4.843,0,0,1,1.084.968c.474.574.783,1.2,1.325,1.758a6.207,6.207,0,0,0,4.095,1.437,21.64,21.64,0,0,0,2.509-.149Z" data-name="Path 239" opacity=".1" transform="translate(-539.1 -390.667)"/><path id="Path_240" fill="none" stroke="#3f3d56" stroke-miterlimit="10" stroke-width="4" d="M1040.674,665.273c1.048-1.939-.141-4.32-1.51-6.05s-3.031-3.529-2.995-5.737c.048-3.168,3.412-5.038,6.1-6.721a29.674,29.674,0,0,0,5.476-4.416,8,8,0,0,0,1.686-2.252,9.251,9.251,0,0,0,.506-4.015q-.173-6.785-.67-13.553" data-name="Path 240" transform="translate(-632.064 -438.113)"/><path id="Path_241" fill="#aff68c" d="M1066.822,614.908a4.934,4.934,0,0,0-2.465-4.047l-1.108,2.188.032-2.65a4.851,4.851,0,0,0-1.606-.2,4.942,4.942,0,1,0,5.167,4.705Z" data-name="Path 241" transform="translate(-644.511 -430.732)"/><path id="Path_242" fill="#aff68c" d="M1045.649,694.523a4.942,4.942,0,1,1,.237-3.982l-3.087,2.513,3.4-.8A4.912,4.912,0,0,1,1045.649,694.523Z" data-name="Path 242" transform="translate(-632.15 -476.893)"/><path id="Path_243" fill="#aff68c" d="M1045.767,666.624a4.942,4.942,0,0,1-1.57-9.7l-.024,2.035,1.12-2.212h0a4.943,4.943,0,1,1,.462,9.876Z" data-name="Path 243" transform="translate(-634.709 -458.593)"/><path id="Path_244" fill="#aff68c" d="M1075.627,646.743a4.942,4.942,0,1,1,2.188-9.234l-.875,2.409,1.8-1.726a4.914,4.914,0,0,1,1.606,3.412,4.776,4.776,0,0,1-.125,1.361A4.942,4.942,0,0,1,1075.627,646.743Z" data-name="Path 244" transform="translate(-652.573 -446.694)"/><path id="Path_245" d="M1066.122,620.26c-1.14.128-2.252.482-3.4.554a3.682,3.682,0,0,1-3.127-1.1,15.349,15.349,0,0,1-.911-1.606,3.552,3.552,0,0,0-1.245-1.172,4.942,4.942,0,1,0,9.234,3.28C1066.491,620.228,1066.307,620.24,1066.122,620.26Z" data-name="Path 245" opacity=".1" transform="translate(-644.473 -434.768)"/><path id="Path_246" d="M1075.657,650.96a4.946,4.946,0,0,1-4.7-7.05,3.66,3.66,0,0,1,1,.992,15.805,15.805,0,0,0,.98,1.634,4.021,4.021,0,0,0,3.276,1.148c1.192-.056,2.344-.4,3.533-.5.165,0,.333-.028.5-.032A4.942,4.942,0,0,1,1075.657,650.96Z" data-name="Path 246" opacity=".1" transform="translate(-652.604 -450.91)"/><path id="Path_247" d="M1045.768,670.965a4.938,4.938,0,0,1-4.741-6.965,4.075,4.075,0,0,1,1.044,1c.4.542.622,1.168,1.072,1.666a4.575,4.575,0,0,0,3.5,1.228c1.265-.028,2.409-.329,3.613-.422A4.942,4.942,0,0,1,1045.768,670.965Z" data-name="Path 247" opacity=".1" transform="translate(-634.71 -462.935)"/><path id="Path_248" d="M1045.691,699.275a4.946,4.946,0,0,1-9.013-4.015,4.842,4.842,0,0,1,1.084.968c.474.574.8,1.2,1.325,1.758a6.207,6.207,0,0,0,4.095,1.437,21.669,21.669,0,0,0,2.509-.148Z" data-name="Path 248" opacity=".1" transform="translate(-632.192 -481.645)"/><path id="Path_249" fill="url(#linear-gradient-2)" d="M449.75,571.1a3.938,3.938,0,0,0-1.57-3.18,217.585,217.585,0,0,0-6.929-7.961h0a3.914,3.914,0,0,0-.57-.132H440a4.52,4.52,0,0,0-4.368,3.862c-1.409-.325-2.7.1-2.935.988a1.2,1.2,0,0,0,.04.715,3.107,3.107,0,0,0,2.072,1.678l.136.04.2.052h.044a3.549,3.549,0,0,0-.337,1.522,3.509,3.509,0,0,0,1.891,3.131l-.092.056a1.253,1.253,0,0,0-.305.426,6.367,6.367,0,0,0-.59,1.421c-.1.426-.116.867-.241,1.289-.233.775-.827,1.429-.9,2.236-.032.361.028.8-.229,1.036a1.247,1.247,0,0,1-.2.144,1.66,1.66,0,0,0-.446.47,1.557,1.557,0,0,1-.313.45c-.233.173-.614.157-.727.426s.181.586.112.879-.317.349-.5.514a1.785,1.785,0,0,0-.43.8,2.634,2.634,0,0,1-2.168-.554,4.053,4.053,0,0,1,.225.8,3.516,3.516,0,0,0-1.168-.586,3.689,3.689,0,0,1-1.245-.923l.666-.092-2.943-4.492-.871-.181.779,1.5a.478.478,0,0,0-.265.317,1.36,1.36,0,0,0-.028.51,9.127,9.127,0,0,0,.2,1.2l.225,1.052c.02.1.044.2.072.293a2.766,2.766,0,0,0-.871.1,7.583,7.583,0,0,0-1.811-.43,1,1,0,0,0-.4,0,1.04,1.04,0,0,0-.381.309,12.349,12.349,0,0,0-1.345,1.895,66.15,66.15,0,0,1-5.677,7.648c-1.365.554-2.742,1.08-4.119,1.606l-2.963,1.132a4.492,4.492,0,0,1-1.839.4c-.281,0-.63-.06-.8.181a1.691,1.691,0,0,0-.181.4l-.305.032h0a3.51,3.51,0,0,0-.711-1.309.45.45,0,0,0-.333.257c-.072.133-.116.277-.2.4-.157.233-.434.345-.63.542s-.321.5-.538.7a2.127,2.127,0,0,1-1.008.4,6.36,6.36,0,0,0-1.578.6,2.54,2.54,0,0,1-.582.269,2.188,2.188,0,0,1-.686.024l-1.566-.116a1.237,1.237,0,0,0-.422.02.8.8,0,0,0-.5.8,1.265,1.265,0,0,0,.5.863,3.19,3.19,0,0,0,.891.462,26.163,26.163,0,0,0,4.175,1.237v.317a7.126,7.126,0,0,0,3.212.763.5.5,0,0,0,.241-.044.53.53,0,0,0,.2-.313,12.915,12.915,0,0,0,.626-3.075h0a1.606,1.606,0,0,0,.566-.145c.538-.149,1.076.221,1.634.281a4.463,4.463,0,0,0,1.971-.57l.281-.092a3.08,3.08,0,0,1-.65.622c-.269.193-.57.337-.831.538a5.723,5.723,0,0,1-.707.546,4.433,4.433,0,0,1-.542.209,3.575,3.575,0,0,0-.775.4,1.569,1.569,0,0,0-.526.514.771.771,0,0,0-.044.723.763.763,0,0,0,.518.361,2.124,2.124,0,0,0,.638,0c.851-.064,1.7-.141,2.545-.217a6.8,6.8,0,0,0,1.064-.153c.185-.044.369-.1.554-.157a4.944,4.944,0,0,1,.967-.145.8.8,0,0,1,.281.028c.2.064.337.265.538.305a.8.8,0,0,0,.4-.052,8.949,8.949,0,0,1,1.883-.2.777.777,0,0,0,.731-.325c.128-.257-.1-.67-.209-1.012a3.093,3.093,0,0,1-.088-.666,4.172,4.172,0,0,0-.466-1.582,4.133,4.133,0,0,1-.349-.723,18.253,18.253,0,0,0,3.465-1.758,6.2,6.2,0,0,1,1.975-.951,5.372,5.372,0,0,1,2.481.289,56.449,56.449,0,0,1,5.689,1.983c.887.365,1.77.751,2.686,1.028a4.188,4.188,0,0,0,.955.927,4.416,4.416,0,0,0,2.068.566,27.094,27.094,0,0,0,2.911.108,4.91,4.91,0,0,0,2.168-.4,2.225,2.225,0,0,0,.454-.3,1.8,1.8,0,0,0,1.429-.526,3.465,3.465,0,0,0,1.088-1.718c.237-.915.056-2.007.618-2.738.149-.2.345-.361.494-.562a1.582,1.582,0,0,0,.257-.927.187.187,0,0,1,.024-.036,3.4,3.4,0,0,0,.241-.923,5.283,5.283,0,0,1,.261-.731,22.551,22.551,0,0,0,.747-2.164,12.644,12.644,0,0,0,.345-1.485c.06-.4.1-.8.128-1.2a7.482,7.482,0,0,1,.365-1.859,15.126,15.126,0,0,0,.843-4.448v-.088a2.983,2.983,0,0,0,2.642-3.035,3.167,3.167,0,0,0-.277-1.3A4.014,4.014,0,0,0,449.75,571.1Zm-14.364,17.451c.044.156.1.309.149.462-.237-.229-.466-.466-.7-.7.092.032.189.06.277.1a1.5,1.5,0,0,1,.265.141Zm-1.136-.771c-1.389-1.2-2.995-2.14-4.416-3.308.775.381,1.53.827,2.276,1.253q1.329.759,2.694,1.457a2.2,2.2,0,0,1-.566.6Zm.59-3.035.068-.068v.478l-.373-.128a3.33,3.33,0,0,0,.293-.281ZM422.624,588a11.5,11.5,0,0,0,1.477-2.108,14.187,14.187,0,0,0,2.2,2.461C425.081,588.2,423.852,588.065,422.624,588Z" data-name="Path 249" transform="translate(-254.635 -400.585)"/><path id="Path_250" fill="#2f2e41" d="M415.35,438.25l.875.177,2.983,4.412-1.313.177Z" data-name="Path 250" transform="translate(-245.163 -262.525)"/><path id="Path_251" fill="#fbbebe" d="M414.49,645.395a17.177,17.177,0,0,0,.875,2.276,21.68,21.68,0,0,0,2.911-.831,9.171,9.171,0,0,0-.606-.8,2.994,2.994,0,0,0-.823-.63,2.265,2.265,0,0,0-1,0C415.4,645.395,414.944,645.4,414.49,645.395Z" data-name="Path 251" transform="translate(-265.962 -451.773)"/><path id="Path_252" fill="#2f2e41" d="M405.669,644.685a1.815,1.815,0,0,1-1-1.132,3.645,3.645,0,0,0-.759-1.353.433.433,0,0,0-.337.253c-.072.128-.116.273-.2.4-.161.229-.442.341-.642.534s-.321.494-.538.69a2.135,2.135,0,0,1-1.016.4,6.586,6.586,0,0,0-1.606.59,2.774,2.774,0,0,1-.59.265,2.334,2.334,0,0,1-.691,0l-1.582-.112a1.238,1.238,0,0,0-.4,0,.767.767,0,0,0-.5.8,1.2,1.2,0,0,0,.5.851,3.332,3.332,0,0,0,.9.458,26.44,26.44,0,0,0,4.239,1.2v.313a7.339,7.339,0,0,0,3.232.751.546.546,0,0,0,.241-.04.53.53,0,0,0,.2-.313,12.523,12.523,0,0,0,.662-3.437,2.738,2.738,0,0,0-.068-.887c-.088-.285.209-.165-.064-.277" data-name="Path 252" transform="translate(-254.895 -449.887)"/><path id="Path_253" fill="#2f2e41" d="M449.509,631.674c-4.689.281-9.322-1.092-14.019-1.237a6.844,6.844,0,0,0-1.742.108,8.778,8.778,0,0,0-1.726.67c-2.517,1.172-5.123,2.144-7.724,3.111l-2.991,1.112a4.53,4.53,0,0,1-1.851.4c-.285,0-.634-.06-.8.177a2.928,2.928,0,0,0,.064,2.589c.1.261.281.546.562.574a1.637,1.637,0,0,0,.57-.145c.542-.145,1.084.221,1.646.281a4.626,4.626,0,0,0,1.987-.562,17.252,17.252,0,0,1,3.4-.578,15.253,15.253,0,0,0,5.331-2.212,6.22,6.22,0,0,1,1.987-.939,5.5,5.5,0,0,1,2.5.285,57.4,57.4,0,0,1,5.737,1.951,26.735,26.735,0,0,0,2.995,1.1,10.839,10.839,0,0,0,6.716-.4c.751-.3,1.566-.8,1.606-1.63.028-.462-.333-.867-.57-1.265-.153-.253-.309-.506-.474-.751C451.913,633.148,450.934,631.59,449.509,631.674Z" data-name="Path 253" transform="translate(-268.017 -442.838)"/><path id="Path_254" d="M449.509,631.674c-4.689.281-9.322-1.092-14.019-1.237a6.844,6.844,0,0,0-1.742.108,8.778,8.778,0,0,0-1.726.67c-2.517,1.172-5.123,2.144-7.724,3.111l-2.991,1.112a4.53,4.53,0,0,1-1.851.4c-.285,0-.634-.06-.8.177a2.928,2.928,0,0,0,.064,2.589c.1.261.281.546.562.574a1.637,1.637,0,0,0,.57-.145c.542-.145,1.084.221,1.646.281a4.626,4.626,0,0,0,1.987-.562,17.252,17.252,0,0,1,3.4-.578,15.253,15.253,0,0,0,5.331-2.212,6.22,6.22,0,0,1,1.987-.939,5.5,5.5,0,0,1,2.5.285,57.4,57.4,0,0,1,5.737,1.951,26.735,26.735,0,0,0,2.995,1.1,10.839,10.839,0,0,0,6.716-.4c.751-.3,1.566-.8,1.606-1.63.028-.462-.333-.867-.57-1.265-.153-.253-.309-.506-.474-.751C451.913,633.148,450.934,631.59,449.509,631.674Z" data-name="Path 254" opacity=".1" transform="translate(-268.017 -442.838)"/><path id="Path_255" fill="#fbbebe" d="M436.92,643.089q1.1.373,2.22.69c.4-.686,1.2-1.164,1.377-1.951a.185.185,0,0,0,0-.1.193.193,0,0,0-.084-.076,4.207,4.207,0,0,0-1.742-.51c-.482-.028-.7.474-.919.827C437.687,642.122,437.117,643.166,436.92,643.089Z" data-name="Path 255" transform="translate(-279.203 -449.25)"/><path id="Path_256" fill="#2f2e41" d="M428.669,643.12a1.606,1.606,0,0,1-1.08-.711c-.1-.181-.213-.426-.422-.4s-.277.241-.321.43a12.043,12.043,0,0,1-.606,2.084,3.91,3.91,0,0,1-1.3,1.706c-.273.189-.574.329-.843.53a5.8,5.8,0,0,1-.711.538,4.235,4.235,0,0,1-.546.2,3.785,3.785,0,0,0-.779.4,1.547,1.547,0,0,0-.534.51.735.735,0,0,0-.04.711.759.759,0,0,0,.518.353,2.185,2.185,0,0,0,.646,0c.855-.06,1.71-.137,2.565-.213a7.409,7.409,0,0,0,1.072-.149l.558-.153a4.444,4.444,0,0,1,.976-.145.759.759,0,0,1,.285.028c.2.064.337.261.542.3a.908.908,0,0,0,.4-.052,8.868,8.868,0,0,1,1.9-.2.8.8,0,0,0,.739-.321c.161-.313-.1-.662-.213-1a3.216,3.216,0,0,1-.088-.654,3.99,3.99,0,0,0-.47-1.558c-.217-.4-.514-.843-.361-1.269a1.205,1.205,0,0,0,.145-.438C430.645,642.963,429.063,643.208,428.669,643.12Z" data-name="Path 256" transform="translate(-270.005 -449.77)"/><path id="Path_257" fill="#fbbebe" d="M472.53,608.653a3.661,3.661,0,0,1-1.871-1.855c-.076-.177-.141-.365-.217-.542a4.119,4.119,0,0,0-1.116-1.554.55.55,0,0,0-.4-.173.438.438,0,0,0-.3.325,1.241,1.241,0,0,0-.032.5,8.948,8.948,0,0,0,.2,1.172l.229,1.036a2.271,2.271,0,0,0,.141.462,1.6,1.6,0,0,0,.381.454c.209.193.422.377.634.562a2.184,2.184,0,0,0,.4.277,2.334,2.334,0,0,0,.711.209,6.046,6.046,0,0,1,2.666,1.028s0-.695,0-.771a1.02,1.02,0,0,0-.2-.558,3.561,3.561,0,0,0-1.224-.574Z" data-name="Path 257" transform="translate(-297.877 -427.34)"/><path id="Path_258" d="M472.53,608.653a3.661,3.661,0,0,1-1.871-1.855c-.076-.177-.141-.365-.217-.542a4.119,4.119,0,0,0-1.116-1.554.55.55,0,0,0-.4-.173.438.438,0,0,0-.3.325,1.241,1.241,0,0,0-.032.5,8.948,8.948,0,0,0,.2,1.172l.229,1.036a2.271,2.271,0,0,0,.141.462,1.6,1.6,0,0,0,.381.454c.209.193.422.377.634.562a2.184,2.184,0,0,0,.4.277,2.334,2.334,0,0,0,.711.209,6.046,6.046,0,0,1,2.666,1.028s0-.695,0-.771a1.02,1.02,0,0,0-.2-.558,3.561,3.561,0,0,0-1.224-.574Z" data-name="Path 258" opacity=".1" transform="translate(-297.877 -427.34)"/><ellipse id="Ellipse_68" cx="1.14" cy="1.148" fill="#2f2e41" data-name="Ellipse 68" rx="1.14" ry="1.148" transform="translate(183.29 171.092)"/><path id="Path_259" fill="#2f2e41" d="M488.679,590.429a1.233,1.233,0,0,0-.9.129,1.249,1.249,0,0,0-.309.422,6.124,6.124,0,0,0-.594,1.4c-.1.4-.116.855-.245,1.269-.233.763-.831,1.409-.9,2.2-.032.357.028.775-.233,1.016a1.468,1.468,0,0,1-.2.148,1.543,1.543,0,0,0-.45.462,1.514,1.514,0,0,1-.317.438c-.233.173-.618.157-.731.4s.181.578.112.867-.321.345-.5.506a1.754,1.754,0,0,0-.434.8,2.678,2.678,0,0,1-2.184-.542,6.953,6.953,0,0,1,.341,2.5,1.02,1.02,0,0,1-.2.771,13.9,13.9,0,0,1,2.678.466,1.847,1.847,0,0,0,1.168,0,1.952,1.952,0,0,0,.538-.426,3.43,3.43,0,0,0,1.1-1.7,10,10,0,0,0,.02-1.152,6.494,6.494,0,0,1,.293-1.4,16.673,16.673,0,0,0,.51-2.883c.052-.6.574-1.084.847-1.606a7.863,7.863,0,0,0,1.08-3.212C489.185,590.931,489.056,590.469,488.679,590.429Z" data-name="Path 259" transform="translate(-305.059 -418.879)"/><path id="Path_260" d="M488.679,590.429a1.233,1.233,0,0,0-.9.129,1.249,1.249,0,0,0-.309.422,6.124,6.124,0,0,0-.594,1.4c-.1.4-.116.855-.245,1.269-.233.763-.831,1.409-.9,2.2-.032.357.028.775-.233,1.016a1.468,1.468,0,0,1-.2.148,1.543,1.543,0,0,0-.45.462,1.514,1.514,0,0,1-.317.438c-.233.173-.618.157-.731.4s.181.578.112.867-.321.345-.5.506a1.754,1.754,0,0,0-.434.8,2.678,2.678,0,0,1-2.184-.542,6.953,6.953,0,0,1,.341,2.5,1.02,1.02,0,0,1-.2.771,13.9,13.9,0,0,1,2.678.466,1.847,1.847,0,0,0,1.168,0,1.952,1.952,0,0,0,.538-.426,3.43,3.43,0,0,0,1.1-1.7,10,10,0,0,0,.02-1.152,6.494,6.494,0,0,1,.293-1.4,16.673,16.673,0,0,0,.51-2.883c.052-.6.574-1.084.847-1.606a7.863,7.863,0,0,0,1.08-3.212C489.185,590.931,489.056,590.469,488.679,590.429Z" data-name="Path 260" opacity=".1" transform="translate(-305.059 -418.879)"/><path id="Path_261" fill="#2f2e41" d="M462.87,621.6a10.582,10.582,0,0,1-2.481-2.071c-1.505-1.417-3.348-2.409-4.934-3.746a34.753,34.753,0,0,0-3.143-2.642,7.856,7.856,0,0,0-3.368-1.176.9.9,0,0,0-.4,0,.923.923,0,0,0-.381.3,12.13,12.13,0,0,0-1.361,1.867c-2.007,3.412-4.862,6.279-7.226,9.45a.6.6,0,0,0-.116.225.558.558,0,0,0,.088.349l.482.939c.269.53.7,1.144,1.281,1.04a1.4,1.4,0,0,0,.67-.43l2.16-2.067,2.264-2.164a17.367,17.367,0,0,0,3.541-4.183c.674,1.172,1.875,1.939,2.694,3.011.313.4.57.855.851,1.289.446.691.955,1.341,1.461,2.007l2.6,3.312a4.971,4.971,0,0,0,1.2,1.2,4.6,4.6,0,0,0,2.084.558,27.526,27.526,0,0,0,2.935.1,5.059,5.059,0,0,0,2.188-.4,1.983,1.983,0,0,0,1.184-1.762,2.585,2.585,0,0,0-.373-1.1A8.947,8.947,0,0,0,462.87,621.6Z" data-name="Path 261" transform="translate(-280.512 -431.777)"/><ellipse id="Ellipse_69" cx=".879" cy=".883" fill="#e8e8f0" data-name="Ellipse 69" rx=".879" ry=".883" transform="translate(184.269 172.152)"/><path id="Path_262" fill="#fbbebe" d="M501.674,588.418a1.69,1.69,0,0,1,.1,1.269,5.147,5.147,0,0,1-.566,1.168,5.564,5.564,0,0,1-.735,1.044,7.562,7.562,0,0,0,3.862-1.108,5.608,5.608,0,0,0,2.437-2.124,1.124,1.124,0,0,1-.9-.169,3.21,3.21,0,0,1-.687-.638l-.678-.763a3.056,3.056,0,0,1-.4-.55,1.518,1.518,0,0,1-.181-.887,5.165,5.165,0,0,1-.9.747c-.486.317-1.02.546-1.509.859-.169.112-.554.289-.454.514S501.538,588.177,501.674,588.418Z" data-name="Path 262" transform="translate(-316.691 -416.045)"/><path id="Path_263" d="M501.674,588.418a1.69,1.69,0,0,1,.1,1.269,5.147,5.147,0,0,1-.566,1.168,5.564,5.564,0,0,1-.735,1.044,7.562,7.562,0,0,0,3.862-1.108,5.608,5.608,0,0,0,2.437-2.124,1.124,1.124,0,0,1-.9-.169,3.21,3.21,0,0,1-.687-.638l-.678-.763a3.056,3.056,0,0,1-.4-.55,1.518,1.518,0,0,1-.181-.887,5.165,5.165,0,0,1-.9.747c-.486.317-1.02.546-1.509.859-.169.112-.554.289-.454.514S501.538,588.177,501.674,588.418Z" data-name="Path 263" opacity=".1" transform="translate(-316.691 -416.045)"/><path id="Path_264" fill="#e8e8f0" d="M495.543,592.648a1.144,1.144,0,0,0,0,1.325c.04.048.185.349.245.353a.221.221,0,0,0,.153-.08,10.085,10.085,0,0,0,.859-1.024,1.911,1.911,0,0,1,1.092-.715,2.361,2.361,0,0,1,1.505.47,1.428,1.428,0,0,1,.518.4,1.4,1.4,0,0,1,.169.574,27.656,27.656,0,0,1,.153,3.649,14.379,14.379,0,0,1-.173,2.63c-.088.446-.217.883-.277,1.337a8.533,8.533,0,0,0-.056,1.2v1.678a4.417,4.417,0,0,0,.064.919c.08.365.253.707.369,1.064a6.955,6.955,0,0,1,.245,1.257l.229,1.734a2.193,2.193,0,0,1-.2,1.606c-.149.2-.345.357-.5.554-.566.739-.4,1.794-.622,2.7a3.364,3.364,0,0,1-1.1,1.686,1.819,1.819,0,0,1-1.449.518,1.986,1.986,0,0,1-1.321-1.562,6.245,6.245,0,0,0-.678-2.035,5.4,5.4,0,0,0-1.341-1.12,2.316,2.316,0,0,1-1.048-1.361c-.044-.253,0-.514-.044-.771a1.819,1.819,0,0,0-1.12-1.473c-.361-.141-.8-.193-1.012-.522a2.437,2.437,0,0,0,1.056-1.417,7.279,7.279,0,0,0,.257-1.791l.12-2.007a6.7,6.7,0,0,1,.478-2.605c.177-.361.4-.7.582-1.06a11.508,11.508,0,0,0,.622-1.554c.289-.827.578-1.654.835-2.489a4.69,4.69,0,0,1,.458-1.16C494.825,593.182,495.138,592.728,495.543,592.648Z" data-name="Path 264" transform="translate(-310.594 -420.143)"/><path id="Path_265" fill="#2f2e41" d="M492.275,605.209h.534l.112-.8a1.673,1.673,0,0,1,.112-.47,2.808,2.808,0,0,1,.309-.45,5.869,5.869,0,0,0,.614-2.63,13.38,13.38,0,0,1,1.172-3.436l1.036-2.308a3.186,3.186,0,0,0,.225-.59,3.539,3.539,0,0,0,.064-.682c0-.357.112-1.658.124-2.007,0-.133-.293-.06-.353-.177-.128-.257-.305.438-.55.59a1.349,1.349,0,0,0-.478.7c-.225.578-.361,1.2-.57,1.778a3.633,3.633,0,0,1-.967,1.574c-.213.185-.458.333-.658.534a3.6,3.6,0,0,0-.727,2.549C492.259,599.934,492.154,605.209,492.275,605.209Z" data-name="Path 265" transform="translate(-311.837 -419.6)"/><path id="Path_266" fill="#2f2e41" d="M504.239,590.389a1.823,1.823,0,0,0-.951,1.3,6.6,6.6,0,0,1-.482,1.606c-.65,1.132-2.308,1.461-2.77,2.686a4.939,4.939,0,0,0-.185,1.265c-.08.879-.369,1.726-.458,2.6a11.592,11.592,0,0,0,.048,2.043l.582,6.913a9.235,9.235,0,0,1-.173,3.043,2.931,2.931,0,0,0,1.742-.289c.542-.249,1.04-.59,1.566-.879a16.134,16.134,0,0,0,2.686-1.51,1.644,1.644,0,0,0,.361-.4,3.472,3.472,0,0,0,.241-.907,4.9,4.9,0,0,1,.261-.715,21.045,21.045,0,0,0,.755-2.136,12.263,12.263,0,0,0,.345-1.461c.064-.4.1-.8.133-1.2a7.067,7.067,0,0,1,.369-1.827,14.714,14.714,0,0,0,.847-4.384,2.293,2.293,0,0,0-.044-.642,3.435,3.435,0,0,0-.353-.735c-.241-.454-.4-.951-.61-1.413a6.949,6.949,0,0,0-2.373-2.493A1.807,1.807,0,0,0,504.239,590.389Z" data-name="Path 266" transform="translate(-316.011 -418.843)"/><path id="Path_267" fill="#fbbebe" d="M471.919,615.095a4.188,4.188,0,0,1-1.1-.839c-.145-.169-.265-.357-.4-.526a2.735,2.735,0,0,0-1.389-.8,6.788,6.788,0,0,0-1.606-.157,2.913,2.913,0,0,0-1.072.128,1.092,1.092,0,0,0-.711.763,1.265,1.265,0,0,0,.542,1.124,2.554,2.554,0,0,0,1.08.522,8.645,8.645,0,0,0,.976.116,14.2,14.2,0,0,1,5.315,2.2q2.216,1.261,4.52,2.345a9.39,9.39,0,0,0,.076-1.385c0-.345-.028-.875-.353-1.08a7.091,7.091,0,0,0-1.437-.43,22.621,22.621,0,0,1-2.895-1.172A14.414,14.414,0,0,1,471.919,615.095Z" data-name="Path 267" transform="translate(-296.08 -432.268)"/><ellipse id="Ellipse_70" cx="3.42" cy="3.441" fill="#fbbebe" data-name="Ellipse 70" rx="3.42" ry="3.441" transform="translate(181.001 165.098)"/><path id="Path_268" fill="#2f2e41" d="M501.356,599.53a5.483,5.483,0,0,0-.662,1.241c-.4.867-1.084,1.606-1.417,2.525s-.337,2.1-1.024,2.85a1,1,0,0,0-.3.434,2.067,2.067,0,0,1-.032.313c-.1.273-.546.285-.63.566-.024.08,0,.169-.04.249-.068.181-.309.209-.466.317-.333.225-.265.747-.5,1.072a.9.9,0,0,1-.855.3,3.012,3.012,0,0,1-.887-.333.856.856,0,0,0-.321-.1.662.662,0,0,0-.369.128,2.276,2.276,0,0,0-.923,1.947,6.359,6.359,0,0,0,.53,2.18.876.876,0,0,0,.173.325.767.767,0,0,0,.851.064,4.012,4.012,0,0,1,.831-.373c.53-.1,1.048.269,1.586.237a2.2,2.2,0,0,0,1.068-.47,5.9,5.9,0,0,0,1.437-1.2c.233-.309.4-.658.61-.988a12.686,12.686,0,0,1,.863-1.152l1.975-2.409a5.543,5.543,0,0,0,.53-.731,5.149,5.149,0,0,0,.4-1.1,8.454,8.454,0,0,0,.4-1.963,7.546,7.546,0,0,0-.145-1.646,5.818,5.818,0,0,0-.4-1.57C503.207,599.329,502.163,598.591,501.356,599.53Z" data-name="Path 268" transform="translate(-312.194 -424.086)"/><path id="Path_269" fill="#f86d70" d="M505.375,572.358a3.854,3.854,0,0,0-1.582-3.131,4.581,4.581,0,0,0-3.89-4.46,4.444,4.444,0,0,0-8.756.237c-1.421-.321-2.722.1-2.959.972s.767,2.007,2.264,2.409a4.221,4.221,0,0,0,1.453.145,4.448,4.448,0,0,0,3.059,1.907,4.565,4.565,0,0,0,3.34,3.445,3.834,3.834,0,0,0,1.032,1.425v.333a2.895,2.895,0,0,0,5.789,0,3.092,3.092,0,0,0-.277-1.281A3.869,3.869,0,0,0,505.375,572.358Z" data-name="Path 269" transform="translate(-309.328 -401.402)"/><path id="Path_270" d="M489.146,566.156c.237-.875,1.538-1.293,2.959-.972a4.521,4.521,0,0,1,4.416-3.806h.293a4.352,4.352,0,0,0-1.261-.189A4.52,4.52,0,0,0,491.137,565c-1.421-.321-2.722.1-2.959.971s.767,2.007,2.264,2.409a4.419,4.419,0,0,0,.859.149C489.869,568.1,488.909,567.051,489.146,566.156Z" data-name="Path 270" opacity=".1" transform="translate(-309.396 -401.399)"/><path id="Path_271" d="M506.01,586.96a3.022,3.022,0,0,1,0-.329,3.749,3.749,0,0,1-1.032-1.425,4.552,4.552,0,0,1-3.34-3.449,4.436,4.436,0,0,1-3.063-1.9,3.853,3.853,0,0,1-.855-.024,4.46,4.46,0,0,0,2.951,1.754,4.565,4.565,0,0,0,3.34,3.445,3.833,3.833,0,0,0,1.032,1.425v.333a2.947,2.947,0,0,0,2.878,2.995A3,3,0,0,1,506.01,586.96Z" data-name="Path 271" opacity=".1" transform="translate(-315.034 -412.556)"/><ellipse id="Ellipse_71" cx=".526" cy=".703" fill="#fbbebe" data-name="Ellipse 71" rx=".526" ry=".703" transform="translate(184.755 169.001) rotate(-37.22)"/></g></svg>