<svg xmlns="http://www.w3.org/2000/svg" width="449" height="358.668" viewBox="0 0 449 358.668">
  <g id="bg-contact-pc" opacity="0.51">
    <ellipse id="Ellipse_35" data-name="Ellipse 35" cx="172.5" cy="171.5" rx="172.5" ry="171.5" transform="translate(104)" fill="#f9f9eb"/>
    <path id="Path_122" data-name="Path 122" d="M563.866,786.706c0,7.111-97.236,22.072-217.183,22.072S129.5,793.817,129.5,786.706s97.236-3.678,217.183-3.678S563.866,779.6,563.866,786.706Z" transform="translate(-129.5 -450.11)" fill="#3f3d56"/>
    <path id="Path_123" data-name="Path 123" d="M563.866,786.706c0,7.111-97.236,22.072-217.183,22.072S129.5,793.817,129.5,786.706s97.236-3.678,217.183-3.678S563.866,779.6,563.866,786.706Z" transform="translate(-129.5 -450.11)" opacity="0.1"/>
    <ellipse id="Ellipse_36" data-name="Ellipse 36" cx="217" cy="12.5" rx="217" ry="12.5" transform="translate(0 325)" fill="#3f3d56"/>
    <path id="Path_124" data-name="Path 124" d="M851.689,659.413c0,29.063,18.233,52.581,40.765,52.581" transform="translate(-504.604 -383.784)" fill="#3f3d56"/>
    <path id="Path_125" data-name="Path 125" d="M940.34,711.3c0-29.39,20.347-53.172,45.491-53.172" transform="translate(-552.49 -383.09)" fill="#aff68c"/>
    <path id="Path_126" data-name="Path 126" d="M883.809,665.142c0,27.607,11.627,49.946,25.995,49.946" transform="translate(-521.954 -386.879)" fill="#aff68c"/>
    <path id="Path_127" data-name="Path 127" d="M940.34,693.949c0-37.554,23.518-67.941,52.581-67.941" transform="translate(-552.49 -365.74)" fill="#3f3d56"/>
    <path id="Path_128" data-name="Path 128" d="M921.69,770.9s5.781-.178,7.524-1.419,8.893-2.722,9.325-.732,8.688,9.9,2.161,9.949-15.166-1.017-16.9-2.076S921.69,770.9,921.69,770.9Z" transform="translate(-542.416 -442.317)" fill="#a8a8a8"/>
    <path id="Path_129" data-name="Path 129" d="M940.816,781.663c-6.527.053-15.165-1.017-16.9-2.076-1.324-.807-1.852-3.7-2.029-5.037l-.193.008s.366,4.662,2.1,5.722,10.378,2.128,16.9,2.076c1.884-.015,2.535-.686,2.5-1.678C942.937,781.277,942.219,781.652,940.816,781.663Z" transform="translate(-542.417 -445.978)" opacity="0.2"/>
    <path id="Path_130" data-name="Path 130" d="M702.135,284.772s5.882,12.353,3.53,18.235,8.823,12.353,8.823,12.353l14.706-8.235V296.536l-2.353-4.706s-9.412-5.294-8.235-13.529S702.135,284.772,702.135,284.772Z" transform="translate(-429.114 -176.566)" fill="#ffb9b9"/>
    <path id="Path_131" data-name="Path 131" d="M702.135,284.772s5.882,12.353,3.53,18.235,8.823,12.353,8.823,12.353l14.706-8.235V296.536l-2.353-4.706s-9.412-5.294-8.235-13.529S702.135,284.772,702.135,284.772Z" transform="translate(-429.114 -176.566)" opacity="0.1"/>
    <path id="Path_132" data-name="Path 132" d="M657.216,407.888s-1.176,12.941-1.176,14.706-1.765,7.647-1.765,7.647-6.471,30-10.588,32.941-6.47,21.176,0,20,8.235-17.059,8.235-17.059l13.393-25.289,1.9-30.593Z" transform="translate(-396.42 -247.918)" fill="#ffb9b9"/>
    <path id="Path_133" data-name="Path 133" d="M680.079,351.6h-4.706s-4.706,28.235,0,29.411S688.9,382.19,688.9,382.19Z" transform="translate(-414.269 -217.514)" fill="#575a89"/>
    <path id="Path_134" data-name="Path 134" d="M616.129,684.121l2.353,11.176,4.706-3.529-2.353-10-4.706,1.764Z" transform="translate(-322.86 -368.27)" fill="#ffb9b9"/>
    <path id="Path_135" data-name="Path 135" d="M694.989,487.2l-3.529,2.353s-1.765,20.588,2.353,36.47,7.058,34.705,7.058,34.705,7.059,47.058,8.824,48.235,12.941,1.765,13.529-.588-4.118-46.47-4.118-46.47-3.529-37.058-.588-41.764c0,0,9.411,40.588,12.353,44.706,0,0,4.117,44.705,6.47,45.882s13.529,1.765,14.118-.588-3.53-52.941-5.294-57.058-2.353-65.294-6.471-64.705S694.989,487.2,694.989,487.2Z" transform="translate(-422.481 -290.761)" fill="#2f2e41"/>
    <circle id="Ellipse_37" data-name="Ellipse 37" cx="13.529" cy="13.529" r="13.529" transform="translate(265.093 86.441)" fill="#ffb9b9"/>
    <path id="Path_136" data-name="Path 136" d="M700.1,323.3l-2.941-5.294s-3.529-4.706-5.294-3.529-1.765,5.294-1.765,5.294-13.529,4.706-12.353,11.176,8.823,17.647,8.823,17.647,1.177,9.412,0,11.765-3.529,4.118-1.765,6.471,2.353,2.941,1.765,5.882-1.765,4.118-.588,5.294-.588,13.529-1.765,14.118,37.647,6.471,40.588,4.706,11.176-1.765,10.588-3.529-2.941-12.353-2.941-14.118,0-9.412-.588-10,.588-9.412.588-9.412l-2.941-24.706,9.411-14.706s-2.353-8.235-13.529-9.412-14.268-4.118-14.268-4.118-1.026,5.294-3.379,6.471S700.1,323.3,700.1,323.3Z" transform="translate(-415.462 -193.329)" fill="#575a89"/>
    <path id="Path_137" data-name="Path 137" d="M801.552,377.187l3.529,26.47-7.647,38.235s-2.941,21.765-8.824,21.176,0-23.529,0-23.529l4.706-35.882s-7.647-18.235-5.882-20.588S801.552,377.187,801.552,377.187Z" transform="translate(-473.205 -231.335)" fill="#ffb9b9"/>
    <path id="Path_138" data-name="Path 138" d="M732.9,755.463s-7.647-4.117-9.412-3.529-3.53,8.824-3.53,8.824-13.529,10-4.706,12.353,12.353-2.941,12.353-2.941,8.824-4.706,8.824-5.882-1.177-8.823-1.177-8.823Z" transform="translate(-434.485 -433.73)" fill="#2f2e41"/>
    <path id="Path_139" data-name="Path 139" d="M793.187,753.281s-3.529,19.412-1.176,20.588,12.353,2.941,13.529,0,1.177-10,.588-12.353-2.353-8.235-2.353-8.235Z" transform="translate(-476.03 -434.489)" fill="#2f2e41"/>
    <path id="Path_140" data-name="Path 140" d="M693.16,230.713a3.139,3.139,0,0,0-1.621-.049A4.845,4.845,0,0,0,689.906,232c-1.349,1.281-3.276,1.681-5.035,2.288s-3.608,1.681-4.049,3.488a19.016,19.016,0,0,0-.192,2.2c-.262,2.132-1.888,4.052-1.6,6.18.19,1.39,1.182,2.57,1.385,3.959.227,1.548-.555,3.16-.119,4.662.427,1.473,1.874,2.37,3.207,3.128q.857-5.442,2.059-10.821a3.908,3.908,0,0,1,.733-1.788c1.183-1.34,3.5-.577,5.037-1.492.583-.348,1.016-.921,1.628-1.214,1.773-.848,3.691,1.03,5.657,1.048.867.008,1.818-.337,2.551.127a2.331,2.331,0,0,1,.746.918c.7,1.315,1.085,2.792,1.9,4.037s2.28,2.261,3.727,1.913c-.221-1.123.658-2.133,1.01-3.222.606-1.874-.384-3.908-.146-5.862.224-1.835,1.42-3.99.108-5.293a3.717,3.717,0,0,0-1.552-.779C702.325,234,698.037,231.526,693.16,230.713Z" transform="translate(-416.938 -152.142)" fill="#2f2e41"/>
    <path id="Path_141" data-name="Path 141" d="M791.168,331.134l5.882,2.353s7.647,24.706,5.882,24.706-17.647,4.118-17.647,2.353S786.462,331.134,791.168,331.134Z" transform="translate(-472.864 -206.458)" fill="#575a89"/>
    <path id="Path_142" data-name="Path 142" d="M252.093,162H70v59.778h6.9v15.634l15.634-15.634H252.093Z" transform="translate(-37.812 -87.507)" fill="#3f3d56"/>
    <path id="Path_143" data-name="Path 143" d="M252.093,512H70v59.778h6.9v15.634l15.634-15.634H252.093Z" transform="translate(-37.812 -276.566)" fill="#3f3d56"/>
    <path id="Path_144" data-name="Path 144" d="M140,338H322.093v59.778h-6.9v15.634l-15.634-15.634H140Z" transform="translate(-75.624 -182.577)" fill="#3f3d56"/>
    <rect id="Rectangle_40" data-name="Rectangle 40" width="139.789" height="5.518" transform="translate(53.34 84.379)" fill="#aff68c" opacity="0.3"/>
    <rect id="Rectangle_41" data-name="Rectangle 41" width="69.894" height="5.518" transform="translate(53.34 94.955)" fill="#aff68c" opacity="0.3"/>
    <circle id="Ellipse_38" data-name="Ellipse 38" cx="7.817" cy="7.817" r="7.817" transform="translate(53.34 108.75)" fill="#aff68c" opacity="0.3"/>
    <rect id="Rectangle_42" data-name="Rectangle 42" width="139.789" height="5.518" transform="translate(85.056 164.39)" fill="#aff68c"/>
    <rect id="Rectangle_43" data-name="Rectangle 43" width="69.894" height="5.518" transform="translate(84.264 174.966)" fill="#aff68c"/>
    <circle id="Ellipse_39" data-name="Ellipse 39" cx="7.817" cy="7.817" r="7.817" transform="translate(83.832 188.761)" fill="#aff68c"/>
    <rect id="Rectangle_44" data-name="Rectangle 44" width="139.789" height="5.518" transform="translate(53.34 245.32)" fill="#aff68c" opacity="0.3"/>
    <rect id="Rectangle_45" data-name="Rectangle 45" width="69.894" height="5.518" transform="translate(53.34 255.896)" fill="#aff68c" opacity="0.3"/>
    <circle id="Ellipse_40" data-name="Ellipse 40" cx="7.817" cy="7.817" r="7.817" transform="translate(53.34 269.691)" fill="#aff68c" opacity="0.3"/>
  </g>
</svg>
