<svg xmlns="http://www.w3.org/2000/svg" width="402.247" height="443.5" viewBox="0 0 402.247 443.5"><g id="bg-contact-btm" opacity=".5"><path id="Path_272" fill="#aff68c" d="M711.353,179.115c9.505-6.108,19.16-12.653,25.876-22.559,7.014-10.345,10.008-25.817,3.508-36.6-5.46-9.061-16.334-12.247-25.6-9.628S698.125,120.4,692.1,128.972c1.971-10.532-7.61-20.7-16.87-19.769s-16.69,10.317-19.163,20.706-.864,21.507,1.789,31.835a149.74,149.74,0,0,0,21.5,47.6,46.451,46.451,0,0,1,5.376-8.708C692.05,191.311,701.848,185.224,711.353,179.115Z" data-name="Path 272" transform="translate(-423.837 -102.735)"/><path id="Path_273" fill="#3f3d56" d="M668.552,206.11a147.17,147.17,0,0,1-26.623-55.557c-2.608-10.724-4.136-22.917-.227-33.5,3.023-8.183,9.466-15.588,17.452-16.273,8.428-.723,17.785,8.326,15.98,18.674-.135.773.743,1.588,1.263.852,6.746-9.547,16.02-18.342,27.071-19.2,9.843-.768,20.183,4.935,23.05,16.529,2.986,12.075-2.166,24.85-9.382,33.389-8,9.472-18.424,15.381-28.259,21.832-9.676,6.347-19.518,13.677-25.47,24.9a43.888,43.888,0,0,0-5.1,17.178,34.783,34.783,0,0,0,3.525,17.762c2.8,5.839,6.253,11.162,8.778,17.191a96.638,96.638,0,0,1,5.63,18.681,101.918,101.918,0,0,1,.049,39.107c-4.639,23.466-18.176,44.118-36.192,56a71.062,71.062,0,0,1-6.7,3.908c-.888.455-.12,1.965.763,1.513,19.283-10.034,34.2-28.753,41.313-51.831,7.622-25.087,4.7-53.993-7.493-76.483-3.191-5.886-6.878-11.594-7.928-18.606A37.181,37.181,0,0,1,662.6,203.18c5.012-12.554,14.945-20.715,24.978-27.45s20.746-12.565,29.247-21.9c7.568-8.314,13.15-20.177,11.84-32.6a25.411,25.411,0,0,0-6.426-14.84,22.83,22.83,0,0,0-12.946-6.77c-10.712-1.751-20.754,4.142-28.389,12.472a70.669,70.669,0,0,0-5.581,6.987l1.263.852c1.63-9.34-4.774-17.921-12.272-20.283-8.154-2.569-16.238,2.958-20.936,10.451-5.869,9.359-6.349,21.362-4.634,32.4a137.84,137.84,0,0,0,9.939,33.034,145,145,0,0,0,18.8,31.828c.654.838,1.72-.4,1.069-1.239Z" data-name="Path 273" transform="translate(-413.892 -99)"/><path id="Path_274" fill="#9f616a" d="M428.352,607.346l-7.131,2.346L393.2,506.241l20.56-4.11Z" data-name="Path 274" transform="translate(-178.952 -184.901)"/><path id="Path_275" fill="#9f616a" d="M298.217,606.8l-7.052-1.752,18.242-106.012,19.837,7.493Z" data-name="Path 275" transform="translate(-132.513 -183.762)"/><path id="Path_276" fill="#2f2e41" d="M669.716,785.388c1.953,1.033,3.588-5.37,5.235-3.494,4.607,5.249,15.659,4.073,15.659,4.073a3.056,3.056,0,0,0,1.711-1.725,3.828,3.828,0,0,0,.1-2.626h0a3.072,3.072,0,0,0-2-2.067l-4.9-1.42-7.693-15.686-8.384-1.23-.212.4a28.55,28.55,0,0,0-2.316,20.495C667.62,784.7,668.569,784.781,669.716,785.388Z" data-name="Path 276" transform="translate(-428.91 -342.849)"/><path id="Path_277" fill="#2f2e41" d="M514.224,778.369c1.757,1.43,4.374-4.52,5.7-2.326,3.7,6.137,14.753,7.322,14.753,7.322a2.835,2.835,0,0,0,1.954-1.333,3.758,3.758,0,0,0,.516-2.56h0a3.308,3.308,0,0,0-1.639-2.456l-4.593-2.434-5.091-17.052-8.049-2.986-.271.35a27.723,27.723,0,0,0-5.508,19.659C512.272,777.247,513.192,777.53,514.224,778.369Z" data-name="Path 277" transform="translate(-358.763 -340.393)"/><path id="Path_278" fill="#2f2e41" d="M597.654,482.9c3.755,6.7,7.395,13.457,9.005,21.153a488.231,488.231,0,0,1,8.322,57.236c-13.046,8.679-24.365,13.66-35.422,14.519-.514.04-1.027.068-1.54.09l-4.031-26.383-3.215,26.092a45.435,45.435,0,0,1-4.789-.85c-6.931-1.612-13.988-4.906-21.529-9.964a153.881,153.881,0,0,1-3.37-38.167,188.1,188.1,0,0,1,7.213-43.692Z" data-name="Path 278" transform="translate(-372.017 -240.366)"/><path id="Path_279" fill="#9f616a" d="M579.362,341.57l-17.724-6.987c6.412-7.278,9.03-15.268,6.381-24.249l19.851,4.11C583.16,324.97,576.992,331.308,579.362,341.57Z" data-name="Path 279" transform="translate(-381.418 -176.82)"/><path id="Path_280" fill="#3f3d56" d="M599.388,428.7c-16.123,14.87-32.537,16.584-49.356.034,6.78-24.681-7.052-47.891-5.037-65.412,1.257-10.931,5.178-24.471,14.3-27.619l9.792,3.469c6.907,2.444,12.221,8.877,14.029,16.984l1.159,5.227c5.606,6.915,7.475,16,6.019,27.035,1.229,3.13.665,7.078.1,11.032-.534,3.761-1.068,7.528-.06,10.594,2.168,6.592,5.66,12.6,9.058,18.655" data-name="Path 280" transform="translate(-373.751 -186.162)"/><path id="Path_281" fill="#e6e6e6" d="M327.71,771.845H315.722c-6.27,0-11.872.514-15.57,3.269C296.611,767.64,289.839,763,282.484,763H270.5c-11.134,0-20.161,10.466-20.161,23.375h97.535C347.871,773.465,338.844,771.845,327.71,771.845Z" data-name="Path 281" transform="translate(-239.74 -343.507)"/><path id="Path_282" fill="#e6e6e6" d="M848.35,793.267h51.2C899.3,782.191,892.141,780,879.946,780H867.958C855.763,780,848.608,782.191,848.35,793.267Z" data-name="Path 282" transform="translate(-511.904 -349.767)"/><rect id="Rectangle_51" width="402.247" height="1.264" fill="#3f3d56" data-name="Rectangle 51" transform="translate(0 441.99)"/><ellipse id="Ellipse_72" cx="15.951" cy="18.495" fill="#9f616a" data-name="Ellipse 72" rx="15.951" ry="18.495" transform="translate(185.538 110.087)"/><path id="Path_283" fill="#9f616a" d="M691.864,460.5l-11.174-4.241.815-10.4,12.27-.316a6.246,6.246,0,0,1,5.127,2.62,8.536,8.536,0,0,1,1.553,6.242h0a7.807,7.807,0,0,1-3.082,5.345A5.831,5.831,0,0,1,691.864,460.5Z" data-name="Path 283" transform="translate(-435.599 -226.608)"/><path id="Path_284" d="M622.662,468.3c-4.619-2.511-15.132-8.842-30.319-21.673-20.914-17.673-15.6-60.827-15.6-60.827l27.911,32.1c-.534,3.761-1.068,7.528-.06,10.594C609.162,442.368,619.594,453.641,622.662,468.3Z" data-name="Path 284" opacity=".2" transform="translate(-388.019 -204.609)"/><path id="Path_285" fill="#2f2e41" d="M634.549,423.727c-15.132,3.887-27.512,6.218-37.574-2.055-15.958-21.518-25.027-43.121-21.632-64.875a10.076,10.076,0,0,1,6.6-8.26h0c4.515-1.415,9.224,1.346,10.918,6.4l12.056,46.848,31.231,7.008Z" data-name="Path 285" transform="translate(-387.332 -190.752)"/><path id="Path_286" fill="#3f3d56" d="M633.926,532.031c-3.658-.007-6.823-2.951-7.621-7.09l-.928-4.847,15.244-3.926.928,4.846c.935,4.881-1.719,9.716-5.929,10.8h0A6.8,6.8,0,0,1,633.926,532.031Zm-7.348-11.049.71,3.706c.815,4.251,4.447,6.931,8.113,5.986s5.978-5.156,5.163-9.407l-.71-3.706Z" data-name="Path 286" transform="translate(-410.426 -252.615)"/><path id="Path_287" fill="#2f2e41" d="M593.837,280.351s2.561-23.106-18.333-15.529c0,0-14.923-3.175-19.816,18.467l-4.955,22.686,2.415-1.524,1.126,2.853,3.913,1.149,1.675-3.854.81,4.68,32.052,3.7s-14.355-9.843-14.583-27.485l2.734,3.35Z" data-name="Path 287" transform="translate(-376.454 -159.499)"/><path id="Path_288" fill="#e6e6e6" d="M281.389,696.911s9.808-123.826,0-143.411c0,0,41.411,76.444,17.981,147.2Z" data-name="Path 288" transform="translate(-253.872 -266.362)"/><path id="Path_289" fill="#e6e6e6" d="M296.1,733.811s31.461-64.9,30.222-78.386c0,0,6.55,53.528-21.181,85.558Z" data-name="Path 289" transform="translate(-260.565 -303.894)"/><path id="Path_290" fill="#e6e6e6" d="M876.389,729.416s6.936-87.571,0-101.421c0,0,29.286,54.062,12.717,104.1Z" data-name="Path 290" transform="translate(-524.665 -293.794)"/><path id="Path_291" fill="#e6e6e6" d="M886.789,755.513s22.25-45.9,21.373-55.435c0,0,4.633,37.855-14.98,60.507Z" data-name="Path 291" transform="translate(-529.398 -320.337)"/></g></svg>