<svg xmlns="http://www.w3.org/2000/svg" xmlns:xlink="http://www.w3.org/1999/xlink" width="295" height="212" viewBox="0 0 295 212"><defs><filter id="a" x="0" y="0" width="295" height="212" filterUnits="userSpaceOnUse"><feOffset dx="5" dy="5" input="SourceAlpha"/><feGaussianBlur stdDeviation="4" result="b"/><feFlood flood-opacity="0.161"/><feComposite operator="in" in2="b"/><feComposite in="SourceGraphic"/></filter><filter id="c" x="2" y="2" width="276" height="193" filterUnits="userSpaceOnUse"><feOffset dx="-5" dy="-5" input="SourceAlpha"/><feGaussianBlur result="d"/><feFlood flood-color="#023650"/><feComposite operator="in" in2="d"/><feComposite in="SourceGraphic"/></filter></defs><g transform="translate(-48 -1861)"><g transform="translate(55 1868)"><g transform="matrix(1, 0, 0, 1, -7, -7)" filter="url(#a)"><rect width="271" height="188" rx="52" transform="translate(7 7)" fill="#003048"/></g><g transform="matrix(1, 0, 0, 1, -7, -7)" filter="url(#c)"><rect width="271" height="188" rx="52" transform="translate(7 7)" fill="#003048"/></g></g><path d="M24.755,18.622a4.662,4.662,0,0,0-3.32-.556l-4.119-4.194,4.122-4.2a4.654,4.654,0,0,0,.923.092A4.764,4.764,0,0,0,26.5,7.339a4.9,4.9,0,0,0,.476-3.685A4.814,4.814,0,0,0,24.749.706a4.729,4.729,0,0,0-6.515,1.777,4.894,4.894,0,0,0-.547,3.38l-4.119,4.194-.334-.34a.523.523,0,0,0-.749,0,.547.547,0,0,0,0,.763l.334.34L10.57,13.109,6.617,9.084,8.863,6.794l.248.252a.523.523,0,0,0,.749,0,.547.547,0,0,0,0-.763L9.445,5.86A4.9,4.9,0,0,0,7.15.712,4.692,4.692,0,0,0,2.672.554a1.1,1.1,0,0,0-.733.9,1.05,1.05,0,0,0,.633.922l1.423.836c.242.142.242.211.242.336v.62c0,.387-.038.453-.367.647l-.528.31c-.1.061-.165.1-.408-.045L1.511,4.249a1.015,1.015,0,0,0-1.1-.1,1.11,1.11,0,0,0-.4,1.1,4.863,4.863,0,0,0,2.374,3.87,4.662,4.662,0,0,0,3.32.556L9.82,13.872,5.7,18.069A4.746,4.746,0,0,0,.641,20.405,4.9,4.9,0,0,0,.164,24.09a4.814,4.814,0,0,0,2.222,2.948,4.674,4.674,0,0,0,2.377.65A4.758,4.758,0,0,0,8.9,25.261a4.894,4.894,0,0,0,.547-3.38l4.119-4.194,4.123,4.2a4.9,4.9,0,0,0,2.295,5.149,4.692,4.692,0,0,0,4.479.158,1.1,1.1,0,0,0,.733-.9,1.05,1.05,0,0,0-.633-.922l-1.423-.836c-.242-.142-.242-.211-.242-.336v-.62c0-.387.038-.453.367-.647l.528-.31c.1-.061.165-.1.408.045l1.423.836a1.015,1.015,0,0,0,1.1.1,1.11,1.11,0,0,0,.4-1.1,4.863,4.863,0,0,0-2.374-3.87ZM2.911,8.187A3.781,3.781,0,0,1,1.069,5.236L2.4,6.021a1.347,1.347,0,0,0,1.467.045l.528-.31a1.6,1.6,0,0,0,.9-1.582v-.62a1.393,1.393,0,0,0-.772-1.271L3.189,1.5a3.651,3.651,0,0,1,3.431.148A3.808,3.808,0,0,1,8.383,5.755L5.6,8.6a3.625,3.625,0,0,1-2.686-.409ZM19.152,3.023A3.678,3.678,0,0,1,24.22,1.641a3.744,3.744,0,0,1,1.728,2.293,3.811,3.811,0,0,1-.37,2.865,3.705,3.705,0,0,1-3.215,1.889,3.624,3.624,0,0,1-.821-.094L18.75,5.757a3.807,3.807,0,0,1,.4-2.734ZM7.984,24.721A3.678,3.678,0,0,1,2.916,26.1,3.744,3.744,0,0,1,1.188,23.81a3.811,3.811,0,0,1,.371-2.865,3.705,3.705,0,0,1,3.215-1.889,3.624,3.624,0,0,1,.821.094l2.791,2.836a3.807,3.807,0,0,1-.4,2.734Zm.881-3.772-2.25-2.287L18.271,6.8l2.25,2.287Zm5.453-4.025,2.248-2.289,3.953,4.025-2.246,2.291Zm10.415,4.8a1.347,1.347,0,0,0-1.467-.045l-.528.31a1.6,1.6,0,0,0-.9,1.582v.621a1.394,1.394,0,0,0,.772,1.271l1.334.784a3.65,3.65,0,0,1-3.431-.148,3.808,3.808,0,0,1-1.763-4.109l2.786-2.841a3.626,3.626,0,0,1,2.687.409,3.781,3.781,0,0,1,1.842,2.951Z" transform="translate(259 2009.944)" fill="#aff68c"/></g></svg>