<svg xmlns="http://www.w3.org/2000/svg" xmlns:xlink="http://www.w3.org/1999/xlink" width="295" height="212" viewBox="0 0 295 212"><defs><filter id="a" x="0" y="0" width="295" height="212" filterUnits="userSpaceOnUse"><feOffset dx="5" dy="5" input="SourceAlpha"/><feGaussianBlur stdDeviation="4" result="b"/><feFlood flood-opacity="0.161"/><feComposite operator="in" in2="b"/><feComposite in="SourceGraphic"/></filter><filter id="c" x="2" y="2" width="276" height="193" filterUnits="userSpaceOnUse"><feOffset dx="-5" dy="-5" input="SourceAlpha"/><feGaussianBlur result="d"/><feFlood flood-color="#023650"/><feComposite operator="in" in2="d"/><feComposite in="SourceGraphic"/></filter></defs><g transform="translate(-45 -1401)"><g transform="translate(52 1408)"><g transform="matrix(1, 0, 0, 1, -7, -7)" filter="url(#a)"><rect width="271" height="188" rx="52" transform="translate(7 7)" fill="#003048"/></g><g transform="matrix(1, 0, 0, 1, -7, -7)" filter="url(#c)"><rect width="271" height="188" rx="52" transform="translate(7 7)" fill="#003048"/></g></g><g transform="translate(255.695 1548.745)"><g transform="translate(0 0)"><path d="M26.638,0H23.422a.8.8,0,0,0-.8.8v.8H15.994a2.411,2.411,0,0,0-4.547,0H4.824V.8a.8.8,0,0,0-.8-.8H.8A.8.8,0,0,0,0,.8V4.02a.8.8,0,0,0,.8.8H4.02a.8.8,0,0,0,.8-.8V3.205H8.167A10.562,10.562,0,0,0,3.291,11.44a2.411,2.411,0,1,0,1.611.016,8.977,8.977,0,0,1,6.658-7.973,2.41,2.41,0,0,0,4.32,0,8.977,8.977,0,0,1,6.658,7.973,2.413,2.413,0,1,0,1.611-.016,10.543,10.543,0,0,0-4.876-8.224h3.343v.8a.8.8,0,0,0,.8.8h3.216a.8.8,0,0,0,.8-.8V.8A.8.8,0,0,0,26.638,0ZM3.216,3.216H1.608V1.608H3.216Zm.858,11.309a.8.8,0,1,1,.8-.8A.8.8,0,0,1,4.073,14.525ZM13.721,3.216a.8.8,0,1,1,.8-.8A.8.8,0,0,1,13.721,3.216Zm9.647,9.7a.8.8,0,1,1-.8.8A.8.8,0,0,1,23.368,12.917Zm2.465-9.7H24.226V1.608h1.608Z" transform="translate(0 0)" fill="#aff68c"/></g><g transform="translate(6.485 6.486)"><path d="M135.336,131.015l-6.432-9.647h0l-.007-.01c-.011-.016-.023-.031-.035-.047a.8.8,0,0,0-1.287.047l-.007.01h0l-6.432,9.647a.8.8,0,0,0,.1,1.014,10.185,10.185,0,0,1,2.9,5.944,4.143,4.143,0,0,0-.36.326,4.075,4.075,0,0,0-1.171,2.863.8.8,0,0,0,.8.8h9.647a.8.8,0,0,0,.8-.8,4.075,4.075,0,0,0-1.171-2.863,4.143,4.143,0,0,0-.36-.326,10.184,10.184,0,0,1,2.9-5.944A.8.8,0,0,0,135.336,131.015Zm-7.1-.358a.8.8,0,1,1-.8.8A.8.8,0,0,1,128.236,130.657Zm-3.883,9.7a2.456,2.456,0,0,1,2.275-1.662h3.216a2.456,2.456,0,0,1,2.275,1.662Zm6.468-3.147a3.95,3.95,0,0,0-.978-.122h-3.216a3.947,3.947,0,0,0-.978.122,11.8,11.8,0,0,0-2.822-5.837l4.6-6.906v4.719a2.412,2.412,0,1,0,1.608,0v-4.719l4.6,6.906A11.8,11.8,0,0,0,130.821,137.211Z" transform="translate(-121 -121.01)" fill="#aff68c"/></g></g></g></svg>