<svg xmlns="http://www.w3.org/2000/svg" xmlns:xlink="http://www.w3.org/1999/xlink" width="295" height="212" viewBox="0 0 295 212"><defs><filter id="a" x="0" y="0" width="295" height="212" filterUnits="userSpaceOnUse"><feOffset dx="5" dy="5" input="SourceAlpha"/><feGaussianBlur stdDeviation="4" result="b"/><feFlood flood-opacity="0.161"/><feComposite operator="in" in2="b"/><feComposite in="SourceGraphic"/></filter><filter id="c" x="2" y="2" width="276" height="193" filterUnits="userSpaceOnUse"><feOffset dx="-5" dy="-5" input="SourceAlpha"/><feGaussianBlur result="d"/><feFlood flood-color="#023650"/><feComposite operator="in" in2="d"/><feComposite in="SourceGraphic"/></filter></defs><g transform="translate(-43 -2629)"><g transform="translate(50 2636)"><g transform="matrix(1, 0, 0, 1, -7, -7)" filter="url(#a)"><rect width="271" height="188" rx="52" transform="translate(7 7)" fill="#003048"/></g><g transform="matrix(1, 0, 0, 1, -7, -7)" filter="url(#c)"><rect width="271" height="188" rx="52" transform="translate(7 7)" fill="#003048"/></g></g><g transform="translate(251 2775)"><path d="M28.043,11.739H25.6a11.037,11.037,0,0,0-.8-1.929l1.725-1.725a1.959,1.959,0,0,0,0-2.768L24.683,3.471a2.006,2.006,0,0,0-2.768,0L20.19,5.2a11.067,11.067,0,0,0-1.929-.8V1.957A1.959,1.959,0,0,0,16.3,0H13.7a1.959,1.959,0,0,0-1.957,1.957V4.4a11.088,11.088,0,0,0-1.929.8L8.084,3.472a1.959,1.959,0,0,0-2.768,0L3.47,5.317a1.961,1.961,0,0,0,0,2.768L5.2,9.811a11.067,11.067,0,0,0-.8,1.929H1.957A1.959,1.959,0,0,0,0,13.7V16.3a1.959,1.959,0,0,0,1.957,1.956H4.4a11.088,11.088,0,0,0,.8,1.929L3.472,21.916a1.959,1.959,0,0,0,0,2.768L5.317,26.53a1.961,1.961,0,0,0,2.768,0L9.811,24.8a11.066,11.066,0,0,0,1.929.8v2.44A1.959,1.959,0,0,0,13.7,30H16.3a1.959,1.959,0,0,0,1.957-1.957V25.6a11.067,11.067,0,0,0,1.929-.8l1.725,1.726a2.006,2.006,0,0,0,2.768,0l1.846-1.846a1.959,1.959,0,0,0,0-2.768L24.8,20.19a11.067,11.067,0,0,0,.8-1.929h2.441A1.959,1.959,0,0,0,30,16.3V13.7A1.959,1.959,0,0,0,28.043,11.739ZM28.7,16.3a.653.653,0,0,1-.652.652H25.109a.652.652,0,0,0-.631.489,9.8,9.8,0,0,1-1.046,2.525.653.653,0,0,0,.1.792l2.074,2.075a.655.655,0,0,1,0,.923L23.76,25.607a.672.672,0,0,1-.923,0l-2.074-2.074a.653.653,0,0,0-.793-.1,9.768,9.768,0,0,1-2.525,1.045.651.651,0,0,0-.488.631v2.935a.653.653,0,0,1-.652.652H13.7a.653.653,0,0,1-.652-.652V25.109a.652.652,0,0,0-.489-.631,9.778,9.778,0,0,1-2.525-1.045.645.645,0,0,0-.331-.091.652.652,0,0,0-.462.191L7.162,25.606a.654.654,0,0,1-.923,0L4.393,23.761a.653.653,0,0,1,0-.923l2.074-2.074a.651.651,0,0,0,.1-.792,9.792,9.792,0,0,1-1.045-2.525.651.651,0,0,0-.631-.489H1.957A.653.653,0,0,1,1.3,16.3V13.7a.653.653,0,0,1,.652-.652H4.891a.652.652,0,0,0,.631-.489,9.778,9.778,0,0,1,1.045-2.525.651.651,0,0,0-.1-.792L4.394,7.163a.654.654,0,0,1,0-.923L6.239,4.394a.654.654,0,0,1,.923,0L9.237,6.468a.65.65,0,0,0,.792.1,9.792,9.792,0,0,1,2.525-1.045.652.652,0,0,0,.489-.631V1.957A.653.653,0,0,1,13.7,1.3H16.3a.653.653,0,0,1,.652.652V4.891a.652.652,0,0,0,.489.631A9.769,9.769,0,0,1,19.97,6.568a.651.651,0,0,0,.793-.1l2.074-2.074a.67.67,0,0,1,.923,0l1.846,1.846a.655.655,0,0,1,0,.923L23.532,9.237a.652.652,0,0,0-.1.792,9.793,9.793,0,0,1,1.046,2.525.651.651,0,0,0,.631.489h2.935a.653.653,0,0,1,.652.652Z" fill="#aff68c"/><g transform="translate(9.13 9.13)"><path d="M117.87,112a5.87,5.87,0,1,0,5.87,5.87A5.877,5.877,0,0,0,117.87,112Zm0,10.435a4.565,4.565,0,1,1,4.565-4.565A4.57,4.57,0,0,1,117.87,122.435Z" transform="translate(-112 -112)" fill="#aff68c"/></g></g></g></svg>