<svg xmlns="http://www.w3.org/2000/svg" xmlns:xlink="http://www.w3.org/1999/xlink" width="295" height="212" viewBox="0 0 295 212"><defs><filter id="a" x="0" y="0" width="295" height="212" filterUnits="userSpaceOnUse"><feOffset dx="5" dy="5" input="SourceAlpha"/><feGaussianBlur stdDeviation="4" result="b"/><feFlood flood-opacity="0.161"/><feComposite operator="in" in2="b"/><feComposite in="SourceGraphic"/></filter><filter id="c" x="2" y="2" width="276" height="193" filterUnits="userSpaceOnUse"><feOffset dx="-5" dy="-5" input="SourceAlpha"/><feGaussianBlur result="d"/><feFlood flood-color="#023650"/><feComposite operator="in" in2="d"/><feComposite in="SourceGraphic"/></filter></defs><g transform="translate(-48 -1631)"><g transform="translate(55 1638)"><g transform="matrix(1, 0, 0, 1, -7, -7)" filter="url(#a)"><rect width="271" height="188" rx="52" transform="translate(7 7)" fill="#003048"/></g><g transform="matrix(1, 0, 0, 1, -7, -7)" filter="url(#c)"><rect width="271" height="188" rx="52" transform="translate(7 7)" fill="#003048"/></g></g><path d="M21.3,4.891a5.139,5.139,0,0,0-7.967,0L12.251,6.135,11.166,4.891a5.14,5.14,0,0,0-7.967,0,7.146,7.146,0,0,0,0,9.134l1.085,1.245L12.251,24.4l7.967-9.134L21.3,14.025a7.144,7.144,0,0,0,0-9.134Z" transform="translate(260.462 1780.643)" fill="none" stroke="#aff68c" stroke-linecap="round" stroke-linejoin="round" stroke-width="3"/></g></svg>