<svg xmlns="http://www.w3.org/2000/svg" width="27.137" height="24.822" viewBox="0 0 27.137 24.822"><path d="M118.469,187.037a.463.463,0,0,1-.3-.111l-3.006-2.559a.465.465,0,0,1,0-.707l3.006-2.559a.464.464,0,1,1,.6.707l-2.59,2.206,2.59,2.206a.465.465,0,0,1-.3.818Zm0,0" transform="translate(-107.684 -168.98)" fill="#aff68c"/><path d="M250.172,187.037a.465.465,0,0,1-.3-.818l2.59-2.206-2.59-2.206a.464.464,0,0,1,.6-.707l3.006,2.559a.465.465,0,0,1,0,.707l-3.006,2.559A.463.463,0,0,1,250.172,187.037Zm0,0" transform="translate(-233.821 -168.98)" fill="#aff68c"/><path d="M189.419,162.848a.472.472,0,0,1-.1-.01.465.465,0,0,1-.359-.55l1.873-8.894a.464.464,0,1,1,.909.192l-1.873,8.894A.465.465,0,0,1,189.419,162.848Zm0,0" transform="translate(-176.91 -142.871)" fill="#aff68c"/><path d="M24.129,24.822H3.008A3.068,3.068,0,0,1,0,21.7V3.119A3.068,3.068,0,0,1,3.008,0H24.129a3.068,3.068,0,0,1,3.008,3.119V21.7A3.068,3.068,0,0,1,24.129,24.822ZM3.008.929A2.154,2.154,0,0,0,.9,3.119V21.7a2.154,2.154,0,0,0,2.112,2.19H24.129a2.154,2.154,0,0,0,2.112-2.19V3.119A2.154,2.154,0,0,0,24.129.929Zm0,0" fill="#aff68c"/><path d="M26.689,99.019H.448a.465.465,0,0,1,0-.929H26.689a.465.465,0,0,1,0,.929Zm0,0" transform="translate(0 -91.581)" fill="#aff68c"/><path d="M98.92,37.229a1.47,1.47,0,1,1,1.47-1.47A1.472,1.472,0,0,1,98.92,37.229Zm0-2.011a.541.541,0,1,0,.541.541A.542.542,0,0,0,98.92,35.218Zm0,0" transform="translate(-91.239 -32.014)" fill="#aff68c"/><path d="M30.857,37.014a1.47,1.47,0,1,1,1.47-1.47A1.472,1.472,0,0,1,30.857,37.014Zm0-2.011a.541.541,0,1,0,.541.541A.542.542,0,0,0,30.857,35Zm0,0" transform="translate(-27.437 -31.813)" fill="#aff68c"/><path d="M166.985,37.444a1.47,1.47,0,1,1,1.47-1.47A1.471,1.471,0,0,1,166.985,37.444Zm0-2.011a.541.541,0,1,0,.541.541A.541.541,0,0,0,166.985,35.433Zm0,0" transform="translate(-154.968 -32.215)" fill="#aff68c"/></svg>