<svg xmlns="http://www.w3.org/2000/svg" width="28.613" height="28.613" viewBox="0 0 28.613 28.613"><path d="M14.307.5A14.49,14.49,0,0,0,0,15.17,14.64,14.64,0,0,0,9.782,29.088c.715.138.978-.316.978-.705,0-.348-.012-1.271-.018-2.494-3.98.885-4.819-1.968-4.819-1.968a3.866,3.866,0,0,0-1.592-2.146c-1.3-.909.1-.891.1-.891A3.007,3.007,0,0,1,6.623,22.4a3.007,3.007,0,0,0,4.167,1.22,3.156,3.156,0,0,1,.906-1.962c-3.177-.367-6.517-1.628-6.517-7.249a5.739,5.739,0,0,1,1.472-3.936,5.339,5.339,0,0,1,.125-3.883s1.2-.393,3.934,1.5a13.166,13.166,0,0,1,7.153,0c2.718-1.9,3.916-1.5,3.916-1.5a5.487,5.487,0,0,1,.143,3.883A5.763,5.763,0,0,1,23.39,14.4c0,5.636-3.344,6.876-6.527,7.237a3.561,3.561,0,0,1,.966,2.714c0,1.963-.018,3.541-.018,4.017,0,.384.25.843.984.7a14.592,14.592,0,0,0,9.819-13.9A14.492,14.492,0,0,0,14.307.5Z" transform="translate(0 -0.5)" fill="#003048"/></svg>