<svg xmlns="http://www.w3.org/2000/svg" width="27" height="27" viewBox="0 0 27 27"><g transform="translate(0)"><path d="M318.755,301.6c-.076-.254-.39-.373-.712-.373a.688.688,0,0,0-.7.373l-1.635,5.33a.488.488,0,0,0-.017.085c0,.271.4.458.695.458.186,0,.33-.059.373-.22l.322-1.127h1.94l.322,1.127c.042.161.186.22.373.22.3,0,.695-.195.695-.458a.373.373,0,0,0-.017-.085Zm-1.449,3.66.737-2.6.737,2.6Zm0,0" transform="translate(-299.04 -285.338)" fill="#aff68c"/><path d="M24.091,11.014H15.985V7.552l2.634-1.882a.791.791,0,0,0,0-1.287l-2.666-1.9A2.914,2.914,0,0,0,13.076,0H2.909A2.912,2.912,0,0,0,0,2.909V13.076a2.912,2.912,0,0,0,2.909,2.909h8.105v3.462L8.38,21.329a.791.791,0,0,0,0,1.287l2.666,1.9A2.914,2.914,0,0,0,13.924,27H24.091A2.912,2.912,0,0,0,27,24.091V13.924a2.912,2.912,0,0,0-2.909-2.909ZM2.909,14.4a1.329,1.329,0,0,1-1.327-1.327V2.909A1.329,1.329,0,0,1,2.909,1.582H13.076A1.329,1.329,0,0,1,14.4,2.909a.791.791,0,0,0,.331.644L16.8,5.027,14.734,6.5a.791.791,0,0,0-.331.644v3.869h-.48a2.912,2.912,0,0,0-2.909,2.909v.48Zm22.509,9.687a1.329,1.329,0,0,1-1.327,1.327H13.924A1.329,1.329,0,0,1,12.6,24.091a.791.791,0,0,0-.331-.644L10.2,21.973,12.265,20.5a.791.791,0,0,0,.331-.644V13.924A1.329,1.329,0,0,1,13.924,12.6H24.091a1.329,1.329,0,0,1,1.327,1.327Zm0,0" fill="#aff68c"/><path d="M102.326,94.777a.446.446,0,0,0,0-.892h-1.984V92.8a.446.446,0,1,0-.892,0v1.083H97.465a.446.446,0,0,0,0,.892h.615A4.255,4.255,0,0,0,99.2,97.229a3.358,3.358,0,0,1-1.73.478.446.446,0,0,0,0,.892,4.243,4.243,0,0,0,2.43-.762,4.244,4.244,0,0,0,2.431.762.446.446,0,0,0,0-.892,3.354,3.354,0,0,1-1.73-.478,4.255,4.255,0,0,0,1.115-2.453Zm-2.431,1.9a3.369,3.369,0,0,1-.916-1.9h1.833A3.368,3.368,0,0,1,99.9,96.672Zm0,0" transform="translate(-91.903 -87.485)" fill="#aff68c"/></g></svg>