<svg xmlns="http://www.w3.org/2000/svg" width="28.613" height="28.614" viewBox="0 0 28.613 28.614"><path d="M26.974,27.157h.007V16.662c0-5.134-1.105-9.088-7.107-9.088a6.23,6.23,0,0,0-5.612,3.084h-.083V8.053H8.489v19.1h5.925V17.7c0-2.491.472-4.9,3.556-4.9,3.039,0,3.084,2.842,3.084,5.059v9.3Z" transform="translate(1.632 1.456)" fill="#003048"/><path d="M.4,7.977H6.328v19.1H.4Z" transform="translate(0.076 1.533)" fill="#003048"/><path d="M3.436,0A3.452,3.452,0,1,0,6.872,3.436,3.437,3.437,0,0,0,3.436,0Z" fill="#003048"/></svg>