<svg xmlns="http://www.w3.org/2000/svg" width="29.277" height="24.391" viewBox="0 0 29.277 24.391"><path d="M28.875,28.75,16.87,40.119a3.285,3.285,0,0,1-4.461,0L.4,28.75A2.849,2.849,0,0,0,0,30.207v18.27a3.078,3.078,0,0,0,3.155,2.987H26.123a3.078,3.078,0,0,0,3.154-2.987V30.207a2.849,2.849,0,0,0-.4-1.457Zm0,0" transform="translate(0 -27.074)" fill="#003048"/><path d="M42.225,13.374,54.175.917A3.022,3.022,0,0,0,52.643.5H29.782A3.023,3.023,0,0,0,28.25.917L40.2,13.374a1.393,1.393,0,0,0,2.026,0Zm0,0" transform="translate(-26.574 -0.5)" fill="#003048"/></svg>