<svg xmlns="http://www.w3.org/2000/svg" width="23.73" height="12.865" viewBox="0 0 23.73 12.865"><g transform="translate(-910.002 -968.292)"><g transform="translate(-2430 -108)" fill="none" stroke-linecap="round" stroke-linejoin="round"><path d="M3351.867,1088.157,3341,1077.292Z" stroke="none"/><path d="M 3351.86669921875 1088.15673828125 L 3341.001708984375 1077.291748046875 L 3351.86669921875 1088.15673828125 M 3351.86669921875 1089.15673828125 C 3351.61083984375 1089.15673828125 3351.354736328125 1089.05908203125 3351.15966796875 1088.863891601563 L 3340.294677734375 1077.998901367188 C 3339.904052734375 1077.608276367188 3339.904052734375 1076.975219726563 3340.294677734375 1076.584594726563 C 3340.48974609375 1076.389404296875 3340.745849609375 1076.291748046875 3341.001708984375 1076.291748046875 C 3341.257568359375 1076.291748046875 3341.513671875 1076.389404296875 3341.708740234375 1076.584594726563 L 3352.57373046875 1087.449584960938 C 3352.96435546875 1087.840209960938 3352.96435546875 1088.473266601563 3352.57373046875 1088.863891601563 C 3352.378662109375 1089.05908203125 3352.12255859375 1089.15673828125 3351.86669921875 1089.15673828125 Z" stroke="none" fill="#aff68c"/></g><g transform="translate(-2419.135 -108)" fill="none" stroke-linecap="round" stroke-linejoin="round"><path d="M3341,1088.157l10.865-10.865Z" stroke="none"/><path d="M 3341.001953125 1088.15673828125 L 3351.866943359375 1077.291748046875 L 3341.001953125 1088.15673828125 M 3341.001953125 1089.15673828125 C 3340.74609375 1089.15673828125 3340.489990234375 1089.05908203125 3340.294921875 1088.863891601563 C 3339.904296875 1088.473266601563 3339.904296875 1087.840209960938 3340.294921875 1087.449584960938 L 3351.159912109375 1076.584594726563 C 3351.35498046875 1076.389404296875 3351.611083984375 1076.291748046875 3351.866943359375 1076.291748046875 C 3352.122802734375 1076.291748046875 3352.37890625 1076.389404296875 3352.573974609375 1076.584594726563 C 3352.964599609375 1076.975219726563 3352.964599609375 1077.608276367188 3352.573974609375 1077.998901367188 L 3341.708984375 1088.863891601563 C 3341.513916015625 1089.05908203125 3341.2578125 1089.15673828125 3341.001953125 1089.15673828125 Z" stroke="none" fill="#aff68c"/></g></g></svg>